<?xml version="1.0" encoding="utf-8"?>
<!-- Generator: Adobe Illustrator 16.0.0, SVG Export Plug-In . SVG Version: 6.00 Build 0)  -->
<!DOCTYPE svg PUBLIC "-//W3C//DTD SVG 1.1//EN" "http://www.w3.org/Graphics/SVG/1.1/DTD/svg11.dtd">
<svg version="1.1" id="Layer_1" xmlns="http://www.w3.org/2000/svg" xmlns:xlink="http://www.w3.org/1999/xlink" x="0px" y="0px"
	 width="360px" height="252px" viewBox="0 0 360 252" enable-background="new 0 0 360 252" xml:space="preserve">
<path fill-rule="evenodd" clip-rule="evenodd" fill="#BD9460" stroke="#282425" stroke-width="4" stroke-linecap="round" stroke-linejoin="round" stroke-miterlimit="10" d="
	M82.378,144.844c0-9.623,8.622-17.429,19.263-17.429s19.264,7.806,19.264,17.429c0,9.623-8.623,17.429-19.264,17.429
	S82.378,154.466,82.378,144.844z"/>
<path fill-rule="evenodd" clip-rule="evenodd" fill="#FFDFBF" stroke="#282425" stroke-width="6" stroke-linecap="round" stroke-linejoin="round" stroke-miterlimit="10" d="
	M103.477,208.138H75.627c0,0,5.356,2.604-6.421-11.008c-23.538-27.216,12.842-59.625,12.842-59.625l19.263,19.264l20.511-19.264
	c0,0,36.39,32.409,12.842,59.625c-11.778,13.612-6.421,11.008-6.421,11.008H103.477z"/>
<path fill-rule="evenodd" clip-rule="evenodd" fill="#AAAAAA" d="M43.852,231.529c0-6.329,58.313-11.466,130.257-11.466
	c71.944,0,130.256,5.137,130.256,11.466s-58.313,11.466-130.256,11.466C102.164,242.995,43.852,237.858,43.852,231.529z"/>
<g>
	
		<path fill-rule="evenodd" clip-rule="evenodd" fill="#BD9460" stroke="#282425" stroke-width="7" stroke-linecap="round" stroke-linejoin="round" stroke-miterlimit="10" d="
		M50.3,97.263c4.312,28.473,25.557,45.828,53.397,45.828c31.261,0,54.194-21.877,54.194-56.809
		c0-34.922-22.933-57.606-54.194-57.606c-29.143,0-51.058,19.713-53.883,50.69c-0.899-3.623-3.192-9.879-8.338-9.594
		c-7.229,0.403-5.623,21.749-0.808,29.812c4.816,8.054,9.632-0.808,9.632-0.808V97.263z"/>
	
		<path fill-rule="evenodd" clip-rule="evenodd" fill="#BD9460" stroke="#282425" stroke-width="7" stroke-linecap="round" stroke-linejoin="round" stroke-miterlimit="10" d="
		M156.983,99.428c0,0,4.825,8.871,9.64,0.808c4.816-8.054,6.421-29.409-0.807-29.813c-7.229-0.395-8.833,12.09-8.833,12.09V99.428z"
		/>
</g>
<rect x="73.912" y="207.872" fill-rule="evenodd" clip-rule="evenodd" fill="#333333" stroke="#282425" stroke-width="6" stroke-linecap="square" stroke-linejoin="round" stroke-miterlimit="10" width="28.106" height="23.364"/>
<rect x="101.21" y="207.872" fill-rule="evenodd" clip-rule="evenodd" fill="#333333" stroke="#282425" stroke-width="6" stroke-linecap="square" stroke-linejoin="round" stroke-miterlimit="10" width="28.106" height="23.364"/>
<path fill-rule="evenodd" clip-rule="evenodd" fill="none" stroke="#282425" stroke-width="4" stroke-linecap="round" stroke-linejoin="round" stroke-miterlimit="10" d="
	M76.801,107.491c0,0,10.035,16.915,26.491,16.915c16.466,0,27.703-13.695,27.299-14.502"/>
<rect x="102.816" y="223.181" fill-rule="evenodd" clip-rule="evenodd" stroke="#282425" stroke-width="4" stroke-linecap="square" stroke-linejoin="round" stroke-miterlimit="10" width="25.693" height="8.054"/>
<rect x="74.719" y="223.181" fill-rule="evenodd" clip-rule="evenodd" stroke="#282425" stroke-width="4" stroke-linecap="square" stroke-linejoin="round" stroke-miterlimit="10" width="25.694" height="8.054"/>
<path fill-rule="evenodd" clip-rule="evenodd" fill="none" stroke="#282425" stroke-width="4" stroke-linecap="round" stroke-linejoin="round" stroke-miterlimit="10" d="
	M73.59,84.127c0,0-0.807-12.09,13.649-12.09c14.448,0,14.053,12.889,13.65,12.09"/>
<path fill-rule="evenodd" clip-rule="evenodd" fill="none" stroke="#282425" stroke-width="4" stroke-linecap="round" stroke-linejoin="round" stroke-miterlimit="10" d="
	M107.311,84.127c0,0-0.808-12.09,13.649-12.09c14.457,0,14.053,12.889,13.65,12.09"/>
<rect x="112.649" y="164.107" fill-rule="evenodd" clip-rule="evenodd" fill="#FFDFBF" stroke="#282425" stroke-width="4" stroke-linecap="round" stroke-linejoin="round" stroke-miterlimit="10" width="13.759" height="12.842"/>
<circle fill-rule="evenodd" clip-rule="evenodd" fill="#282425" cx="103.017" cy="168.235" r="2.293"/>
<circle fill-rule="evenodd" clip-rule="evenodd" fill="#282425" cx="103.017" cy="178.325" r="2.293"/>
<circle fill-rule="evenodd" clip-rule="evenodd" fill="#282425" cx="103.017" cy="187.498" r="2.293"/>
<path fill-rule="evenodd" clip-rule="evenodd" fill="#282425" stroke="#282425" stroke-width="7" stroke-linecap="round" stroke-linejoin="round" stroke-miterlimit="10" d="
	M252.941,50.435c0-15.576,12.577-28.198,28.097-28.198c15.521,0,28.106,12.622,28.106,28.198c0,15.576-12.585,28.198-28.106,28.198
	C265.518,78.633,252.941,66.011,252.941,50.435z"/>
<path fill-rule="evenodd" clip-rule="evenodd" fill="#282425" stroke="#282425" stroke-width="7" stroke-linecap="round" stroke-linejoin="round" stroke-miterlimit="10" d="
	M228.046,38.198c0-15.576,12.585-28.198,28.106-28.198c15.521,0,28.097,12.622,28.097,28.198c0,15.576-12.576,28.198-28.097,28.198
	C240.631,66.396,228.046,53.774,228.046,38.198z"/>
<path fill-rule="evenodd" clip-rule="evenodd" fill="#282425" stroke="#282425" stroke-width="7" stroke-linecap="round" stroke-linejoin="round" stroke-miterlimit="10" d="
	M220.02,50.435c0-15.576-12.585-28.198-28.106-28.198s-28.097,12.622-28.097,28.198c0,15.576,12.576,28.198,28.097,28.198
	S220.02,66.011,220.02,50.435z"/>
<g>
	
		<path fill-rule="evenodd" clip-rule="evenodd" fill="#282425" stroke="#282425" stroke-width="7" stroke-linecap="round" stroke-linejoin="round" stroke-miterlimit="10" d="
		M188.703,78.89c0-9.568-7.907-17.328-17.667-17.328c-9.751,0-17.658,7.76-17.658,17.328c0,9.567,7.907,17.318,17.658,17.318
		C180.796,96.208,188.703,88.457,188.703,78.89z"/>
	
		<path fill-rule="evenodd" clip-rule="evenodd" fill="#282425" stroke="#282425" stroke-width="7" stroke-linecap="round" stroke-linejoin="round" stroke-miterlimit="10" d="
		M317.969,78.89c0-9.568-7.907-17.328-17.658-17.328c-9.76,0-17.667,7.76-17.667,17.328c0,9.567,7.907,17.318,17.667,17.318
		C310.062,96.208,317.969,88.457,317.969,78.89z"/>
	
		<path fill-rule="evenodd" clip-rule="evenodd" fill="#282425" stroke="#282425" stroke-width="7" stroke-linecap="round" stroke-linejoin="round" stroke-miterlimit="10" d="
		M191.914,107.087c0-9.567-7.907-17.328-17.658-17.328c-9.76,0-17.667,7.76-17.667,17.328s7.907,17.319,17.667,17.319
		C184.006,124.406,191.914,116.655,191.914,107.087z"/>
	
		<path fill-rule="evenodd" clip-rule="evenodd" fill="#282425" stroke="#282425" stroke-width="7" stroke-linecap="round" stroke-linejoin="round" stroke-miterlimit="10" d="
		M207.168,124.81c0-9.568-7.908-17.319-17.659-17.319c-9.76,0-17.667,7.751-17.667,17.319c0,9.567,7.907,17.328,17.667,17.328
		C199.261,142.138,207.168,134.377,207.168,124.81z"/>
	
		<path fill-rule="evenodd" clip-rule="evenodd" fill="#282425" stroke="#282425" stroke-width="7" stroke-linecap="round" stroke-linejoin="round" stroke-miterlimit="10" d="
		M311.548,107.087c0-9.567-7.907-17.328-17.658-17.328c-9.76,0-17.667,7.76-17.667,17.328s7.907,17.319,17.667,17.319
		C303.641,124.406,311.548,116.655,311.548,107.087z"/>
	
		<path fill-rule="evenodd" clip-rule="evenodd" fill="#282425" stroke="#282425" stroke-width="7" stroke-linecap="round" stroke-linejoin="round" stroke-miterlimit="10" d="
		M293.89,121.59c0-9.567-7.917-17.328-17.667-17.328c-9.76,0-17.667,7.761-17.667,17.328s7.908,17.318,17.667,17.318
		C285.974,138.908,293.89,131.157,293.89,121.59z"/>
</g>
<path fill-rule="evenodd" clip-rule="evenodd" fill="#FFCC99" stroke="#282425" stroke-width="4" stroke-linecap="round" stroke-linejoin="round" stroke-miterlimit="10" d="
	M203.462,150.806c0-10.889,12.53-19.722,27.978-19.722s27.978,8.833,27.978,19.722s-12.53,19.722-27.978,19.722
	S203.462,161.695,203.462,150.806z"/>
<path fill-rule="evenodd" clip-rule="evenodd" fill="#282425" stroke="#282425" stroke-width="7" stroke-linecap="round" stroke-linejoin="round" stroke-miterlimit="10" d="
	M244.906,38.198C244.906,22.622,232.33,10,216.809,10s-28.106,12.622-28.106,28.198c0,15.576,12.585,28.198,28.106,28.198
	S244.906,53.774,244.906,38.198z"/>
<g>
	
		<path fill-rule="evenodd" clip-rule="evenodd" fill="#FFCC99" stroke="#282425" stroke-width="7" stroke-linecap="round" stroke-linejoin="round" stroke-miterlimit="10" d="
		M181.474,97.263c4.312,28.473,25.557,45.828,53.397,45.828c31.261,0,54.194-21.877,54.194-56.809
		c0-34.922-22.933-57.606-54.194-57.606c-29.143,0-51.058,19.713-53.882,50.69c-0.899-3.623-3.193-9.879-8.339-9.594
		c-7.229,0.403-5.623,21.749-0.807,29.812c4.815,8.054,9.631-0.808,9.631-0.808V97.263z"/>
	
		<path fill-rule="evenodd" clip-rule="evenodd" fill="#FFCC99" stroke="#282425" stroke-width="7" stroke-linecap="round" stroke-linejoin="round" stroke-miterlimit="10" d="
		M288.157,99.428c0,0,4.825,8.871,9.641,0.808c4.815-8.054,6.421-29.409-0.807-29.813c-7.229-0.395-8.833,12.09-8.833,12.09V99.428z
		"/>
</g>
<path fill-rule="evenodd" clip-rule="evenodd" fill="#282425" stroke="#282425" stroke-width="7" stroke-linecap="round" stroke-linejoin="round" stroke-miterlimit="10" d="
	M232.064,28.676c0,0,0.798,36.261,52.185,36.261C335.637,64.938,232.064,28.676,232.064,28.676z"/>
<path fill-rule="evenodd" clip-rule="evenodd" fill="#99E5FF" stroke="#282425" stroke-width="6" stroke-linecap="round" stroke-linejoin="round" stroke-miterlimit="10" d="
	M203.16,139.863c0,0,8.825,13.704,31.307,13.704c22.483,0,26.501-14.502,26.501-14.502l32.922,68.477H174.255L203.16,139.863z"/>
<rect x="205.086" y="207.872" fill-rule="evenodd" clip-rule="evenodd" fill="#FFCC99" stroke="#282425" stroke-width="6" stroke-linecap="square" stroke-linejoin="round" stroke-miterlimit="10" width="28.106" height="23.364"/>
<rect x="232.385" y="207.872" fill-rule="evenodd" clip-rule="evenodd" fill="#FFCC99" stroke="#282425" stroke-width="6" stroke-linecap="square" stroke-linejoin="round" stroke-miterlimit="10" width="28.106" height="23.364"/>
<path fill-rule="evenodd" clip-rule="evenodd" fill="none" stroke="#282425" stroke-width="4" stroke-linecap="round" stroke-linejoin="round" stroke-miterlimit="10" d="
	M207.976,107.491c0,0,10.035,16.915,26.491,16.915c16.466,0,27.703-13.695,27.299-14.502"/>
<rect x="233.99" y="223.181" fill-rule="evenodd" clip-rule="evenodd" fill="#FF4D4D" stroke="#282425" stroke-width="4" stroke-linecap="square" stroke-linejoin="round" stroke-miterlimit="10" width="25.693" height="8.054"/>
<rect x="205.893" y="223.181" fill-rule="evenodd" clip-rule="evenodd" fill="#FF4D4D" stroke="#282425" stroke-width="4" stroke-linecap="square" stroke-linejoin="round" stroke-miterlimit="10" width="25.694" height="8.054"/>
<path fill-rule="evenodd" clip-rule="evenodd" fill="none" stroke="#282425" stroke-width="4" stroke-linecap="round" stroke-linejoin="round" stroke-miterlimit="10" d="
	M204.765,84.127c0,0-0.807-12.09,13.649-12.09c14.448,0,14.053,12.889,13.65,12.09"/>
<path fill-rule="evenodd" clip-rule="evenodd" fill="none" stroke="#282425" stroke-width="4" stroke-linecap="round" stroke-linejoin="round" stroke-miterlimit="10" d="
	M238.485,84.127c0,0-0.807-12.09,13.649-12.09c14.457,0,14.053,12.889,13.65,12.09"/>
<line fill-rule="evenodd" clip-rule="evenodd" fill="none" stroke="#282425" stroke-width="4" stroke-linecap="round" stroke-linejoin="round" stroke-miterlimit="10" x1="207.168" y1="76.064" x2="203.16" y2="72.037"/>
<line fill-rule="evenodd" clip-rule="evenodd" fill="none" stroke="#282425" stroke-width="4" stroke-linecap="round" stroke-linejoin="round" stroke-miterlimit="10" x1="211.186" y1="73.652" x2="207.168" y2="69.625"/>
</svg>
