<?xml version="1.0" encoding="utf-8"?>
<!-- Generator: Adobe Illustrator 16.0.0, SVG Export Plug-In . SVG Version: 6.00 Build 0)  -->
<!DOCTYPE svg PUBLIC "-//W3C//DTD SVG 1.1//EN" "http://www.w3.org/Graphics/SVG/1.1/DTD/svg11.dtd">
<svg version="1.1" id="Layer_1" xmlns="http://www.w3.org/2000/svg" xmlns:xlink="http://www.w3.org/1999/xlink" x="0px" y="0px"
	 width="360px" height="252px" viewBox="0 0 360 252" enable-background="new 0 0 360 252" xml:space="preserve">
<path fill-rule="evenodd" clip-rule="evenodd" fill="#FFCC99" stroke="#282425" stroke-width="4" stroke-linecap="round" stroke-linejoin="round" stroke-miterlimit="10" d="
	M76.5,148c0-10.49,9.4-19,21-19s21,8.51,21,19s-9.4,19-21,19S76.5,158.49,76.5,148z"/>
<path fill-rule="evenodd" clip-rule="evenodd" fill="#282425" d="M96.199,32.703c0,0,26.926-4.84,35.675,8.747
	s15.415,15.81,15.415,15.81s27.8,8.443,8.4-14.224s-5.144-42-38.772-39.667s-40.25,18.298-58.583,22.964
	S38.139,69.389,38.139,69.389h7.483c0,0,11.333-14.687,29.167-22.687S96.199,32.703,96.199,32.703z"/>
<path fill-rule="evenodd" clip-rule="evenodd" fill="#FFDFBF" stroke="#282425" stroke-width="6" stroke-linecap="round" stroke-linejoin="round" stroke-miterlimit="10" d="
	M99.5,217H69.14c0,0,5.84,2.84-7-12c-25.66-29.67,14-65,14-65l21,21l22.36-21c0,0,39.67,35.33,14,65c-12.84,14.84-7,12-7,12H99.5z"
	/>
<path fill-rule="evenodd" clip-rule="evenodd" fill="#AAAAAA" d="M34.5,242.5c0-6.9,63.57-12.5,142-12.5s142,5.6,142,12.5
	s-63.57,12.5-142,12.5S34.5,249.4,34.5,242.5z"/>
<g>
	
		<path fill-rule="evenodd" clip-rule="evenodd" fill="#FFCC99" stroke="#282425" stroke-width="7" stroke-linecap="round" stroke-linejoin="round" stroke-miterlimit="10" d="
		M41.53,96.13c4.7,31.04,27.86,49.96,58.21,49.96c34.08,0,59.08-23.85,59.08-61.93c0-38.07-25-62.8-59.08-62.8
		c-31.77,0-55.66,21.49-58.74,55.26c-0.98-3.95-3.48-10.77-9.09-10.46c-7.88,0.44-6.13,23.71-0.88,32.5
		c5.25,8.78,10.5-0.88,10.5-0.88V96.13z"/>
	
		<path fill-rule="evenodd" clip-rule="evenodd" fill="#FADC9E" stroke="#282425" stroke-width="7" stroke-linecap="round" stroke-linejoin="round" stroke-miterlimit="10" d="
		M157.83,98.49c0,0,5.26,9.67,10.51,0.88c5.25-8.78,7-32.06-0.88-32.5c-7.88-0.43-9.63,13.18-9.63,13.18V98.49z"/>
</g>
<rect x="67.27" y="216.71" fill-rule="evenodd" clip-rule="evenodd" fill="#333333" stroke="#282425" stroke-width="6" stroke-linecap="square" stroke-linejoin="round" stroke-miterlimit="10" width="30.64" height="25.47"/>
<rect x="97.03" y="216.71" fill-rule="evenodd" clip-rule="evenodd" fill="#333333" stroke="#282425" stroke-width="6" stroke-linecap="square" stroke-linejoin="round" stroke-miterlimit="10" width="30.64" height="25.47"/>
<path fill-rule="evenodd" clip-rule="evenodd" fill="none" stroke="#282425" stroke-width="4" stroke-linecap="round" stroke-linejoin="round" stroke-miterlimit="10" d="
	M70.42,107.28c0,0,10.94,18.44,28.88,18.44c17.95,0,30.2-14.93,29.76-15.81"/>
<rect x="98.78" y="233.4" fill-rule="evenodd" clip-rule="evenodd" stroke="#282425" stroke-width="4" stroke-linecap="square" stroke-linejoin="round" stroke-miterlimit="10" width="28.01" height="8.78"/>
<rect x="68.15" y="233.4" fill-rule="evenodd" clip-rule="evenodd" stroke="#282425" stroke-width="4" stroke-linecap="square" stroke-linejoin="round" stroke-miterlimit="10" width="28.01" height="8.78"/>
<path fill-rule="evenodd" clip-rule="evenodd" fill="none" stroke="#282425" stroke-width="4" stroke-linecap="round" stroke-linejoin="round" stroke-miterlimit="10" d="
	M66.92,81.81c0,0-0.88-13.18,14.88-13.18c15.75,0,15.32,14.05,14.88,13.18"/>
<path fill-rule="evenodd" clip-rule="evenodd" fill="none" stroke="#282425" stroke-width="4" stroke-linecap="round" stroke-linejoin="round" stroke-miterlimit="10" d="
	M103.68,81.81c0,0-0.88-13.18,14.88-13.18c15.76,0,15.32,14.05,14.88,13.18"/>
<rect x="109.5" y="169" fill-rule="evenodd" clip-rule="evenodd" fill="#FFDFBF" stroke="#282425" stroke-width="4" stroke-linecap="round" stroke-linejoin="round" stroke-miterlimit="10" width="15" height="14"/>
<circle fill-rule="evenodd" clip-rule="evenodd" fill="#282425" cx="99" cy="173.5" r="2.5"/>
<circle fill-rule="evenodd" clip-rule="evenodd" fill="#282425" cx="99" cy="184.5" r="2.5"/>
<circle fill-rule="evenodd" clip-rule="evenodd" fill="#282425" cx="99" cy="194.5" r="2.5"/>
<path fill-rule="evenodd" clip-rule="evenodd" fill="#282425" stroke="#282425" stroke-width="7" stroke-linecap="round" stroke-linejoin="round" stroke-miterlimit="10" d="
	M262.44,45.08c0-16.98,13.71-30.74,30.63-30.74c16.92,0,30.64,13.76,30.64,30.74s-13.72,30.74-30.64,30.74
	C276.15,75.82,262.44,62.06,262.44,45.08z"/>
<path fill-rule="evenodd" clip-rule="evenodd" fill="#282425" stroke="#282425" stroke-width="7" stroke-linecap="round" stroke-linejoin="round" stroke-miterlimit="10" d="
	M235.3,31.74C235.3,14.76,249.02,1,265.94,1s30.63,13.76,30.63,30.74c0,16.98-13.71,30.74-30.63,30.74S235.3,48.72,235.3,31.74z"/>
<path fill-rule="evenodd" clip-rule="evenodd" fill="#282425" stroke="#282425" stroke-width="7" stroke-linecap="round" stroke-linejoin="round" stroke-miterlimit="10" d="
	M226.55,45.08c0-16.98-13.72-30.74-30.64-30.74s-30.63,13.76-30.63,30.74s13.71,30.74,30.63,30.74S226.55,62.06,226.55,45.08z"/>
<g>
	
		<path fill-rule="evenodd" clip-rule="evenodd" fill="#282425" stroke="#282425" stroke-width="7" stroke-linecap="round" stroke-linejoin="round" stroke-miterlimit="10" d="
		M192.41,76.1c0-10.43-8.62-18.89-19.26-18.89c-10.63,0-19.25,8.46-19.25,18.89c0,10.43,8.62,18.88,19.25,18.88
		C183.79,94.98,192.41,86.53,192.41,76.1z"/>
	
		<path fill-rule="evenodd" clip-rule="evenodd" fill="#282425" stroke="#282425" stroke-width="7" stroke-linecap="round" stroke-linejoin="round" stroke-miterlimit="10" d="
		M333.33,76.1c0-10.43-8.62-18.89-19.25-18.89c-10.64,0-19.26,8.46-19.26,18.89c0,10.43,8.62,18.88,19.26,18.88
		C324.71,94.98,333.33,86.53,333.33,76.1z"/>
	
		<path fill-rule="evenodd" clip-rule="evenodd" fill="#282425" stroke="#282425" stroke-width="7" stroke-linecap="round" stroke-linejoin="round" stroke-miterlimit="10" d="
		M195.91,106.84c0-10.43-8.62-18.89-19.25-18.89c-10.64,0-19.26,8.46-19.26,18.89c0,10.43,8.62,18.88,19.26,18.88
		C187.29,125.72,195.91,117.27,195.91,106.84z"/>
	
		<path fill-rule="evenodd" clip-rule="evenodd" fill="#282425" stroke="#282425" stroke-width="7" stroke-linecap="round" stroke-linejoin="round" stroke-miterlimit="10" d="
		M212.54,126.16c0-10.43-8.62-18.88-19.25-18.88c-10.64,0-19.26,8.45-19.26,18.88c0,10.43,8.62,18.89,19.26,18.89
		C203.92,145.05,212.54,136.59,212.54,126.16z"/>
	
		<path fill-rule="evenodd" clip-rule="evenodd" fill="#282425" stroke="#282425" stroke-width="7" stroke-linecap="round" stroke-linejoin="round" stroke-miterlimit="10" d="
		M326.33,106.84c0-10.43-8.62-18.89-19.25-18.89c-10.64,0-19.26,8.46-19.26,18.89c0,10.43,8.62,18.88,19.26,18.88
		C317.71,125.72,326.33,117.27,326.33,106.84z"/>
	
		<path fill-rule="evenodd" clip-rule="evenodd" fill="#282425" stroke="#282425" stroke-width="7" stroke-linecap="round" stroke-linejoin="round" stroke-miterlimit="10" d="
		M307.08,122.65c0-10.43-8.63-18.89-19.26-18.89c-10.64,0-19.26,8.46-19.26,18.89c0,10.43,8.62,18.88,19.26,18.88
		C298.45,141.53,307.08,133.08,307.08,122.65z"/>
</g>
<path fill-rule="evenodd" clip-rule="evenodd" fill="#FFCC99" stroke="#282425" stroke-width="4" stroke-linecap="round" stroke-linejoin="round" stroke-miterlimit="10" d="
	M208.5,154.5c0-11.87,13.66-21.5,30.5-21.5s30.5,9.63,30.5,21.5S255.84,176,239,176S208.5,166.37,208.5,154.5z"/>
<path fill-rule="evenodd" clip-rule="evenodd" fill="#282425" stroke="#282425" stroke-width="7" stroke-linecap="round" stroke-linejoin="round" stroke-miterlimit="10" d="
	M253.68,31.74C253.68,14.76,239.97,1,223.05,1c-16.92,0-30.64,13.76-30.64,30.74c0,16.98,13.72,30.74,30.64,30.74
	C239.97,62.48,253.68,48.72,253.68,31.74z"/>
<g>
	
		<path fill-rule="evenodd" clip-rule="evenodd" fill="#FFCC99" stroke="#282425" stroke-width="7" stroke-linecap="round" stroke-linejoin="round" stroke-miterlimit="10" d="
		M184.53,96.13c4.7,31.04,27.86,49.96,58.21,49.96c34.08,0,59.08-23.85,59.08-61.93c0-38.07-25-62.8-59.08-62.8
		c-31.77,0-55.66,21.49-58.74,55.26c-0.98-3.95-3.48-10.77-9.09-10.46c-7.88,0.44-6.13,23.71-0.88,32.5
		c5.25,8.78,10.5-0.88,10.5-0.88V96.13z"/>
	
		<path fill-rule="evenodd" clip-rule="evenodd" fill="#FFCC99" stroke="#282425" stroke-width="7" stroke-linecap="round" stroke-linejoin="round" stroke-miterlimit="10" d="
		M300.83,98.49c0,0,5.26,9.67,10.51,0.88c5.25-8.78,7-32.06-0.88-32.5c-7.88-0.43-9.63,13.18-9.63,13.18V98.49z"/>
</g>
<path fill-rule="evenodd" clip-rule="evenodd" fill="#282425" stroke="#282425" stroke-width="7" stroke-linecap="round" stroke-linejoin="round" stroke-miterlimit="10" d="
	M239.68,21.36c0,0,0.87,39.53,56.89,39.53S239.68,21.36,239.68,21.36z"/>
<path fill-rule="evenodd" clip-rule="evenodd" fill="#99E5FF" stroke="#282425" stroke-width="6" stroke-linecap="round" stroke-linejoin="round" stroke-miterlimit="10" d="
	M208.17,142.57c0,0,9.62,14.94,34.13,14.94c24.51,0,28.89-15.81,28.89-15.81l35.89,74.65H176.66L208.17,142.57z"/>
<rect x="210.27" y="216.71" fill-rule="evenodd" clip-rule="evenodd" fill="#FFCC99" stroke="#282425" stroke-width="6" stroke-linecap="square" stroke-linejoin="round" stroke-miterlimit="10" width="30.64" height="25.47"/>
<rect x="240.03" y="216.71" fill-rule="evenodd" clip-rule="evenodd" fill="#FFCC99" stroke="#282425" stroke-width="6" stroke-linecap="square" stroke-linejoin="round" stroke-miterlimit="10" width="30.64" height="25.47"/>
<path fill-rule="evenodd" clip-rule="evenodd" fill="none" stroke="#282425" stroke-width="4" stroke-linecap="round" stroke-linejoin="round" stroke-miterlimit="10" d="
	M213.42,107.28c0,0,10.94,18.44,28.88,18.44c17.95,0,30.2-14.93,29.76-15.81"/>
<rect x="241.78" y="233.4" fill-rule="evenodd" clip-rule="evenodd" fill="#FF4D4D" stroke="#282425" stroke-width="4" stroke-linecap="square" stroke-linejoin="round" stroke-miterlimit="10" width="28.01" height="8.78"/>
<rect x="211.15" y="233.4" fill-rule="evenodd" clip-rule="evenodd" fill="#FF4D4D" stroke="#282425" stroke-width="4" stroke-linecap="square" stroke-linejoin="round" stroke-miterlimit="10" width="28.01" height="8.78"/>
<path fill-rule="evenodd" clip-rule="evenodd" fill="none" stroke="#282425" stroke-width="4" stroke-linecap="round" stroke-linejoin="round" stroke-miterlimit="10" d="
	M209.92,81.81c0,0-0.88-13.18,14.88-13.18c15.75,0,15.32,14.05,14.88,13.18"/>
<path fill-rule="evenodd" clip-rule="evenodd" fill="none" stroke="#282425" stroke-width="4" stroke-linecap="round" stroke-linejoin="round" stroke-miterlimit="10" d="
	M246.68,81.81c0,0-0.88-13.18,14.88-13.18c15.76,0,15.32,14.05,14.88,13.18"/>
<line fill-rule="evenodd" clip-rule="evenodd" fill="none" stroke="#282425" stroke-width="4" stroke-linecap="round" stroke-linejoin="round" stroke-miterlimit="10" x1="212.54" y1="73.02" x2="208.17" y2="68.63"/>
<line fill-rule="evenodd" clip-rule="evenodd" fill="none" stroke="#282425" stroke-width="4" stroke-linecap="round" stroke-linejoin="round" stroke-miterlimit="10" x1="216.92" y1="70.39" x2="212.54" y2="66"/>
<path fill-rule="evenodd" clip-rule="evenodd" fill="#282425" d="M99.912,21.33c0,0-9.91,15.16,11.59,19.747
	s40.69,4.288,40.69,4.288L131.073,3.996L99.912,21.33z"/>
<path fill-rule="evenodd" clip-rule="evenodd" fill="#282425" d="M99.423,9.656c0,0,7.908,27.169-13.592,31.756
	S45.142,45.7,45.142,45.7L70.42,22.681L99.423,9.656z"/>
</svg>
