<?xml version="1.0" encoding="utf-8"?>
<!-- Generator: Adobe Illustrator 16.0.0, SVG Export Plug-In . SVG Version: 6.00 Build 0)  -->
<!DOCTYPE svg PUBLIC "-//W3C//DTD SVG 1.1//EN" "http://www.w3.org/Graphics/SVG/1.1/DTD/svg11.dtd">
<svg version="1.1" id="Layer_1" xmlns="http://www.w3.org/2000/svg" xmlns:xlink="http://www.w3.org/1999/xlink" x="0px" y="0px"
	 width="360px" height="252px" viewBox="0 0 360 252" enable-background="new 0 0 360 252" xml:space="preserve">
<path fill-rule="evenodd" clip-rule="evenodd" fill="#282425" stroke="#282425" stroke-width="7" stroke-linecap="round" stroke-linejoin="round" stroke-miterlimit="10" d="
	M182.826,46.55c0-16.389,13.233-29.671,29.564-29.671c16.332,0,29.574,13.282,29.574,29.671s-13.242,29.67-29.574,29.67
	C196.059,76.22,182.826,62.939,182.826,46.55z"/>
<path fill-rule="evenodd" clip-rule="evenodd" fill="#282425" stroke="#282425" stroke-width="7" stroke-linecap="round" stroke-linejoin="round" stroke-miterlimit="10" d="
	M156.63,33.674c0-16.39,13.243-29.671,29.575-29.671c16.331,0,29.564,13.281,29.564,29.671s-13.233,29.671-29.564,29.671
	C169.873,63.345,156.63,50.063,156.63,33.674z"/>
<path fill-rule="evenodd" clip-rule="evenodd" fill="#282425" stroke="#282425" stroke-width="7" stroke-linecap="round" stroke-linejoin="round" stroke-miterlimit="10" d="
	M148.185,46.55c0-16.389-13.243-29.671-29.574-29.671S89.045,30.161,89.045,46.55s13.233,29.67,29.565,29.67
	S148.185,62.939,148.185,46.55z"/>
<g>
	
		<path fill-rule="evenodd" clip-rule="evenodd" fill="#282425" stroke="#282425" stroke-width="7" stroke-linecap="round" stroke-linejoin="round" stroke-miterlimit="10" d="
		M115.232,76.491c0-10.067-8.32-18.233-18.59-18.233c-10.26,0-18.581,8.166-18.581,18.233c0,10.067,8.32,18.223,18.581,18.223
		C106.912,94.714,115.232,86.558,115.232,76.491z"/>
	
		<path fill-rule="evenodd" clip-rule="evenodd" fill="#282425" stroke="#282425" stroke-width="7" stroke-linecap="round" stroke-linejoin="round" stroke-miterlimit="10" d="
		M251.25,76.491c0-10.067-8.32-18.233-18.581-18.233c-10.27,0-18.59,8.166-18.59,18.233c0,10.067,8.32,18.223,18.59,18.223
		C242.93,94.714,251.25,86.558,251.25,76.491z"/>
	
		<path fill-rule="evenodd" clip-rule="evenodd" fill="#282425" stroke="#282425" stroke-width="7" stroke-linecap="round" stroke-linejoin="round" stroke-miterlimit="10" d="
		M118.61,106.162c0-10.067-8.32-18.233-18.581-18.233c-10.27,0-18.59,8.166-18.59,18.233s8.32,18.224,18.59,18.224
		C110.29,124.385,118.61,116.229,118.61,106.162z"/>
	
		<path fill-rule="evenodd" clip-rule="evenodd" fill="#282425" stroke="#282425" stroke-width="7" stroke-linecap="round" stroke-linejoin="round" stroke-miterlimit="10" d="
		M134.662,124.81c0-10.067-8.32-18.224-18.581-18.224c-10.27,0-18.59,8.156-18.59,18.224c0,10.067,8.32,18.233,18.59,18.233
		C126.342,143.042,134.662,134.876,134.662,124.81z"/>
	
		<path fill-rule="evenodd" clip-rule="evenodd" fill="#282425" stroke="#282425" stroke-width="7" stroke-linecap="round" stroke-linejoin="round" stroke-miterlimit="10" d="
		M244.494,106.162c0-10.067-8.32-18.233-18.581-18.233c-10.27,0-18.59,8.166-18.59,18.233s8.32,18.224,18.59,18.224
		C236.174,124.385,244.494,116.229,244.494,106.162z"/>
	
		<path fill-rule="evenodd" clip-rule="evenodd" fill="#282425" stroke="#282425" stroke-width="7" stroke-linecap="round" stroke-linejoin="round" stroke-miterlimit="10" d="
		M225.914,121.421c0-10.067-8.33-18.233-18.59-18.233c-10.27,0-18.59,8.166-18.59,18.233c0,10.067,8.32,18.223,18.59,18.223
		C217.584,139.645,225.914,131.489,225.914,121.421z"/>
</g>
<path fill-rule="evenodd" clip-rule="evenodd" fill="#FFCC99" stroke="#282425" stroke-width="4" stroke-linecap="round" stroke-linejoin="round" stroke-miterlimit="10" d="
	M130.762,152.164c0-11.457,13.185-20.752,29.439-20.752c16.254,0,29.439,9.295,29.439,20.752c0,11.458-13.185,20.752-29.439,20.752
	C143.947,172.916,130.762,163.621,130.762,152.164z"/>
<path fill-rule="evenodd" clip-rule="evenodd" fill="#282425" stroke="#282425" stroke-width="7" stroke-linecap="round" stroke-linejoin="round" stroke-miterlimit="10" d="
	M174.371,33.674c0-16.39-13.233-29.671-29.565-29.671c-16.332,0-29.574,13.281-29.574,29.671s13.242,29.671,29.574,29.671
	C161.138,63.345,174.371,50.063,174.371,33.674z"/>
<ellipse fill-rule="evenodd" clip-rule="evenodd" fill="#AAAAAA" cx="141.003" cy="237.296" rx="127.998" ry="11.863"/>
<g>
	
		<path fill-rule="evenodd" clip-rule="evenodd" fill="#FFCC99" stroke="#282425" stroke-width="7" stroke-linecap="round" stroke-linejoin="round" stroke-miterlimit="10" d="
		M107.626,95.824c4.537,29.96,26.891,48.223,56.186,48.223c32.895,0,57.025-23.021,57.025-59.776
		c0-36.746-24.13-60.616-57.025-60.616c-30.665,0-53.724,20.743-56.697,53.338c-0.946-3.813-3.359-10.396-8.774-10.096
		c-7.606,0.425-5.917,22.885-0.85,31.37c5.067,8.475,10.135-0.85,10.135-0.85V95.824z"/>
	
		<path fill-rule="evenodd" clip-rule="evenodd" fill="#FFCC99" stroke="#282425" stroke-width="7" stroke-linecap="round" stroke-linejoin="round" stroke-miterlimit="10" d="
		M219.881,98.102c0,0,5.077,9.333,10.145,0.85c5.067-8.475,6.756-30.945-0.85-31.37c-7.605-0.416-9.295,12.721-9.295,12.721V98.102z
		"/>
</g>
<path fill-rule="evenodd" clip-rule="evenodd" fill="#282425" stroke="#282425" stroke-width="7" stroke-linecap="round" stroke-linejoin="round" stroke-miterlimit="10" d="
	M160.858,23.655c0,0,0.839,38.155,54.911,38.155C269.84,61.81,160.858,23.655,160.858,23.655z"/>
<path fill-rule="evenodd" clip-rule="evenodd" fill="#99E5FF" stroke="#282425" stroke-width="6" stroke-linecap="round" stroke-linejoin="round" stroke-miterlimit="10" d="
	M130.444,140.648c0,0,9.286,14.42,32.943,14.42c23.658,0,27.885-15.26,27.885-15.26l34.642,72.054H100.03L130.444,140.648z"/>
<rect x="132.471" y="212.21" fill-rule="evenodd" clip-rule="evenodd" fill="#FFCC99" stroke="#282425" stroke-width="6" stroke-linecap="square" stroke-linejoin="round" stroke-miterlimit="10" width="29.575" height="24.584"/>
<rect x="161.195" y="212.21" fill-rule="evenodd" clip-rule="evenodd" fill="#FFCC99" stroke="#282425" stroke-width="6" stroke-linecap="square" stroke-linejoin="round" stroke-miterlimit="10" width="29.575" height="24.584"/>
<g>
	
		<path fill-rule="evenodd" clip-rule="evenodd" fill="#FFFFFF" stroke="#282425" stroke-width="5" stroke-linecap="round" stroke-linejoin="round" stroke-miterlimit="10" d="
		M39.366,143.12c0-4.392,2.297-6.708,6.64-6.708h8.996h54.467c4.343,0,6.641,2.316,6.641,6.708v39.67
		c0,4.392-2.297,6.708-6.641,6.708H46.006c-4.343,0-6.64-2.317-6.64-6.708V143.12z"/>
	
		<polygon fill-rule="evenodd" clip-rule="evenodd" fill="#282425" stroke="#282425" stroke-width="5" stroke-linecap="round" stroke-linejoin="round" stroke-miterlimit="10" points="
		39.955,189.499 22.301,217.799 130.444,217.799 115.512,189.499 	"/>
</g>
<path fill-rule="evenodd" clip-rule="evenodd" fill="none" stroke="#282425" stroke-width="4" stroke-linecap="round" stroke-linejoin="round" stroke-miterlimit="10" d="
	M135.511,106.586c0,0,10.56,17.799,27.875,17.799c17.326,0,29.149-14.411,28.725-15.26"/>
<rect x="162.885" y="228.319" fill-rule="evenodd" clip-rule="evenodd" fill="#FF4D4D" stroke="#282425" stroke-width="4" stroke-linecap="square" stroke-linejoin="round" stroke-miterlimit="10" width="27.036" height="8.475"/>
<rect x="133.32" y="228.319" fill-rule="evenodd" clip-rule="evenodd" fill="#FF4D4D" stroke="#282425" stroke-width="4" stroke-linecap="square" stroke-linejoin="round" stroke-miterlimit="10" width="27.036" height="8.475"/>
<path fill-rule="evenodd" clip-rule="evenodd" fill="none" stroke="#282425" stroke-width="4" stroke-linecap="round" stroke-linejoin="round" stroke-miterlimit="10" d="
	M132.133,82.002c0,0-0.849-12.722,14.362-12.722c15.202,0,14.788,13.562,14.363,12.722"/>
<path fill-rule="evenodd" clip-rule="evenodd" fill="none" stroke="#282425" stroke-width="4" stroke-linecap="round" stroke-linejoin="round" stroke-miterlimit="10" d="
	M167.615,82.002c0,0-0.85-12.722,14.362-12.722c15.211,0,14.787,13.562,14.362,12.722"/>
<line fill-rule="evenodd" clip-rule="evenodd" fill="none" stroke="#282425" stroke-width="4" stroke-linecap="round" stroke-linejoin="round" stroke-miterlimit="10" x1="134.662" y1="73.518" x2="130.444" y2="69.28"/>
<line fill-rule="evenodd" clip-rule="evenodd" fill="none" stroke="#282425" stroke-width="4" stroke-linecap="round" stroke-linejoin="round" stroke-miterlimit="10" x1="138.89" y1="70.979" x2="134.662" y2="66.742"/>
<g>
	<g>
		<g>
			
				<polygon fill-rule="evenodd" clip-rule="evenodd" fill="#FF99FF" stroke="#282425" stroke-width="2" stroke-linecap="round" stroke-linejoin="round" stroke-miterlimit="10" points="
				297.426,169.142 346.006,169.142 341.749,230.51 301.692,230.51 			"/>
			
				<path fill-rule="evenodd" clip-rule="evenodd" fill="none" stroke="#282425" stroke-width="2" stroke-linecap="round" stroke-linejoin="round" stroke-miterlimit="10" d="
				M315.032,169.142c0,0-4.228-21.862,5.627-21.862c9.854,0,7.046,21.157,7.046,21.157"/>
		</g>
		
			<polygon fill-rule="evenodd" clip-rule="evenodd" fill="#26C9FF" stroke="#282425" stroke-width="2" stroke-linecap="round" stroke-linejoin="round" stroke-miterlimit="10" points="
			257.292,199.479 305.872,199.479 301.615,239.69 261.559,239.69 		"/>
		
			<path fill-rule="evenodd" clip-rule="evenodd" fill="none" stroke="#282425" stroke-width="2" stroke-linecap="round" stroke-linejoin="round" stroke-miterlimit="10" d="
			M273.489,198.774c0,0,0-19.044,8.446-19.044c8.455,0,6.341,18.339,6.341,18.339"/>
	</g>
</g>
<g>
	<path fill="#FF3939" d="M51.559,168.389c0.955,0.587,2.35,1.077,3.818,1.077c2.178,0,3.451-1.15,3.451-2.814
		c0-1.542-0.881-2.423-3.108-3.28c-2.692-0.955-4.356-2.35-4.356-4.675c0-2.57,2.129-4.479,5.335-4.479
		c1.689,0,2.913,0.392,3.647,0.808l-0.587,1.738c-0.539-0.293-1.64-0.783-3.133-0.783c-2.252,0-3.108,1.346-3.108,2.472
		c0,1.542,1.003,2.301,3.28,3.182c2.79,1.077,4.209,2.423,4.209,4.846c0,2.545-1.884,4.748-5.776,4.748
		c-1.591,0-3.329-0.465-4.21-1.052L51.559,168.389z"/>
	<path fill="#FF3939" d="M66.047,154.487v6.902h7.979v-6.902h2.154v16.496h-2.154v-7.734h-7.979v7.734h-2.129v-16.496H66.047z"/>
	<path fill="#FF3939" d="M93.972,162.563c0,5.678-3.451,8.688-7.661,8.688c-4.356,0-7.416-3.377-7.416-8.37
		c0-5.238,3.255-8.665,7.661-8.665C91.06,154.217,93.972,157.668,93.972,162.563z M81.171,162.833c0,3.524,1.909,6.682,5.262,6.682
		c3.377,0,5.287-3.108,5.287-6.853c0-3.28-1.713-6.707-5.262-6.707C82.934,155.955,81.171,159.21,81.171,162.833z"/>
	<path fill="#FF3939" d="M96.736,154.683c1.028-0.171,2.375-0.318,4.087-0.318c2.105,0,3.647,0.49,4.626,1.371
		c0.906,0.783,1.444,1.982,1.444,3.451c0,1.493-0.44,2.667-1.272,3.524c-1.126,1.199-2.961,1.811-5.042,1.811
		c-0.636,0-1.224-0.024-1.713-0.147v6.608h-2.129V154.683z M98.866,162.637c0.465,0.123,1.053,0.171,1.762,0.171
		c2.57,0,4.137-1.248,4.137-3.524c0-2.178-1.542-3.23-3.892-3.23c-0.93,0-1.64,0.073-2.007,0.171V162.637z"/>
</g>
</svg>
