<?xml version="1.0" encoding="utf-8"?>
<!-- Generator: Adobe Illustrator 16.0.0, SVG Export Plug-In . SVG Version: 6.00 Build 0)  -->
<!DOCTYPE svg PUBLIC "-//W3C//DTD SVG 1.1//EN" "http://www.w3.org/Graphics/SVG/1.1/DTD/svg11.dtd">
<svg version="1.1" id="Layer_1" xmlns="http://www.w3.org/2000/svg" xmlns:xlink="http://www.w3.org/1999/xlink" x="0px" y="0px"
	 width="360px" height="252px" viewBox="0 0 360 252" enable-background="new 0 0 360 252" xml:space="preserve">
<path fill-rule="evenodd" clip-rule="evenodd" fill="#FFCC99" stroke="#282425" stroke-width="4" stroke-linecap="round" stroke-linejoin="round" stroke-miterlimit="10" d="
	M96,138.5c0-10.49,9.4-19,21-19s21,8.51,21,19s-9.4,19-21,19S96,148.99,96,138.5z"/>
<path fill-rule="evenodd" clip-rule="evenodd" fill="#FFDFBF" stroke="#282425" stroke-width="6" stroke-linecap="round" stroke-linejoin="round" stroke-miterlimit="10" d="
	M119,207.5H88.64c0,0,5.84,2.84-7-12c-25.66-29.67,14-65,14-65l21,21l22.36-21c0,0,39.67,35.33,14,65c-12.84,14.84-7,12-7,12H119z"
	/>
<path fill-rule="evenodd" clip-rule="evenodd" fill="#AAAAAA" d="M38,232c0-6.899,63.57-12.5,142-12.5c78.431,0,142,5.601,142,12.5
	s-63.569,12.5-142,12.5C101.57,244.5,38,238.899,38,232z"/>
<g>
	
		<path fill-rule="evenodd" clip-rule="evenodd" fill="#FFCC99" stroke="#282425" stroke-width="7" stroke-linecap="round" stroke-linejoin="round" stroke-miterlimit="10" d="
		M61.03,86.63c4.7,31.04,27.86,49.96,58.21,49.96c34.08,0,59.08-23.85,59.08-61.93c0-38.07-25-62.8-59.08-62.8
		c-31.77,0-55.66,21.49-58.74,55.26c-0.98-3.95-3.48-10.77-9.09-10.46c-7.88,0.44-6.13,23.71-0.88,32.5
		c5.25,8.78,10.5-0.88,10.5-0.88V86.63z"/>
	
		<path fill-rule="evenodd" clip-rule="evenodd" fill="#FADC9E" stroke="#282425" stroke-width="7" stroke-linecap="round" stroke-linejoin="round" stroke-miterlimit="10" d="
		M177.33,88.99c0,0,5.26,9.67,10.51,0.88c5.25-8.78,7-32.06-0.88-32.5c-7.88-0.43-9.63,13.18-9.63,13.18V88.99z"/>
</g>
<rect x="86.77" y="207.21" fill-rule="evenodd" clip-rule="evenodd" fill="#333333" stroke="#282425" stroke-width="6" stroke-linecap="square" stroke-linejoin="round" stroke-miterlimit="10" width="30.64" height="25.471"/>
<rect x="116.53" y="207.21" fill-rule="evenodd" clip-rule="evenodd" fill="#333333" stroke="#282425" stroke-width="6" stroke-linecap="square" stroke-linejoin="round" stroke-miterlimit="10" width="30.64" height="25.471"/>
<path fill-rule="evenodd" clip-rule="evenodd" fill="none" stroke="#282425" stroke-width="4" stroke-linecap="round" stroke-linejoin="round" stroke-miterlimit="10" d="
	M89.92,97.78c0,0,10.94,18.44,28.88,18.44c17.95,0,30.2-14.93,29.76-15.81"/>
<g>
	<g>
		
			<path fill-rule="evenodd" clip-rule="evenodd" fill="#FFCC99" stroke="#282425" stroke-width="4" stroke-linecap="round" stroke-linejoin="round" stroke-miterlimit="10" d="
			M156.44,180.34c0,0,2.63-15.37,21.88-15.81c18.041-0.41,27.14,0.88,28.89,5.27c4.92,12.34,3.5,12.301,3.5,12.301L156.44,180.34z"
			/>
		
			<path fill-rule="evenodd" clip-rule="evenodd" fill="#FFCC99" stroke="#282425" stroke-width="4" stroke-linecap="round" stroke-linejoin="round" stroke-miterlimit="10" d="
			M185.59,170.98l7.7,3.529c0,0,27.46,3.57,31.93,6.06c4.42,2.461,5.681,11.661-8.6,11.171c-14.73-0.5-35.38-3.31-35.38-3.31
			L185.59,170.98z"/>
		
			<path fill-rule="evenodd" clip-rule="evenodd" fill="#FFCC99" stroke="#282425" stroke-width="4" stroke-linecap="round" stroke-linejoin="round" stroke-miterlimit="10" d="
			M156.44,181.92c0-5.72,4.61-10.359,10.29-10.359c5.69,0,10.29,4.64,10.29,10.359c0,5.73-4.6,10.37-10.29,10.37
			C161.05,192.29,156.44,187.65,156.44,181.92z"/>
		
			<path fill-rule="evenodd" clip-rule="evenodd" fill="#FFCC99" stroke="#282425" stroke-width="4" stroke-linecap="round" stroke-linejoin="round" stroke-miterlimit="10" d="
			M174.45,181.92c0-5.72,4.61-10.359,10.29-10.359c5.69,0,10.29,4.64,10.29,10.359c0,5.73-4.6,10.37-10.29,10.37
			C179.06,192.29,174.45,187.65,174.45,181.92z"/>
		
			<path fill-rule="evenodd" clip-rule="evenodd" fill="#FFCC99" stroke="#282425" stroke-width="4" stroke-linecap="round" stroke-linejoin="round" stroke-miterlimit="10" d="
			M192.46,181.49c0-5.01,4.03-9.07,9.01-9.07c4.97,0,9,4.061,9,9.07s-4.03,9.07-9,9.07C196.49,190.561,192.46,186.5,192.46,181.49z"
			/>
	</g>
</g>
<rect x="118.28" y="223.899" fill-rule="evenodd" clip-rule="evenodd" stroke="#282425" stroke-width="4" stroke-linecap="square" stroke-linejoin="round" stroke-miterlimit="10" width="28.01" height="8.781"/>
<rect x="87.65" y="223.899" fill-rule="evenodd" clip-rule="evenodd" stroke="#282425" stroke-width="4" stroke-linecap="square" stroke-linejoin="round" stroke-miterlimit="10" width="28.01" height="8.781"/>
<path fill-rule="evenodd" clip-rule="evenodd" fill="none" stroke="#282425" stroke-width="4" stroke-linecap="round" stroke-linejoin="round" stroke-miterlimit="10" d="
	M86.42,72.31c0,0-0.88-13.18,14.88-13.18c15.75,0,15.32,14.05,14.88,13.18"/>
<path fill-rule="evenodd" clip-rule="evenodd" fill="none" stroke="#282425" stroke-width="4" stroke-linecap="round" stroke-linejoin="round" stroke-miterlimit="10" d="
	M123.18,72.31c0,0-0.88-13.18,14.88-13.18c15.76,0,15.32,14.05,14.88,13.18"/>
<g>
	<g>
		
			<path fill-rule="evenodd" clip-rule="evenodd" fill="#FFD24D" stroke="#282425" stroke-linecap="round" stroke-linejoin="round" stroke-miterlimit="10" d="
			M169.57,163.65v4.39c0,0,6.02,1.76,16.63,1.76s14.01-0.88,14.01-0.88v-5.27H169.57z"/>
		
			<path fill-rule="evenodd" clip-rule="evenodd" fill="#FFD24D" stroke="#282425" stroke-linecap="round" stroke-linejoin="round" stroke-miterlimit="10" d="
			M169.57,163.65c0-0.97,6.86-1.75,15.32-1.75c8.46,0,15.32,0.78,15.32,1.75s-6.86,1.76-15.32,1.76
			C176.43,165.41,169.57,164.62,169.57,163.65z"/>
	</g>
</g>
<g>
	<g>
		
			<path fill-rule="evenodd" clip-rule="evenodd" fill="#FFD24D" stroke="#282425" stroke-linecap="round" stroke-linejoin="round" stroke-miterlimit="10" d="
			M169.57,158.38v4.39c0,0,6.02,1.761,16.63,1.761s14.01-0.88,14.01-0.88v-5.271H169.57z"/>
		
			<path fill-rule="evenodd" clip-rule="evenodd" fill="#FFD24D" stroke="#282425" stroke-linecap="round" stroke-linejoin="round" stroke-miterlimit="10" d="
			M169.57,158.38c0-0.97,6.86-1.75,15.32-1.75c8.46,0,15.32,0.78,15.32,1.75c0,0.971-6.86,1.76-15.32,1.76
			C176.43,160.14,169.57,159.351,169.57,158.38z"/>
	</g>
</g>
<g>
	<g>
		
			<path fill-rule="evenodd" clip-rule="evenodd" fill="#FFD24D" stroke="#282425" stroke-linecap="round" stroke-linejoin="round" stroke-miterlimit="10" d="
			M169.57,152.52v4.391c0,0,6.02,1.76,16.63,1.76s14.01-0.88,14.01-0.88v-5.271H169.57z"/>
		
			<path fill-rule="evenodd" clip-rule="evenodd" fill="#FFD24D" stroke="#282425" stroke-linecap="round" stroke-linejoin="round" stroke-miterlimit="10" d="
			M169.57,153.23c0-0.971,6.86-1.75,15.32-1.75c8.46,0,15.32,0.779,15.32,1.75c0,0.97-6.86,1.76-15.32,1.76
			C176.43,154.99,169.57,154.2,169.57,153.23z"/>
	</g>
</g>
<g>
	<g>
		
			<path fill-rule="evenodd" clip-rule="evenodd" fill="#FFD24D" stroke="#282425" stroke-linecap="round" stroke-linejoin="round" stroke-miterlimit="10" d="
			M169.57,147.25v4.39c0,0,6.02,1.761,16.63,1.761s14.01-0.881,14.01-0.881v-5.27H169.57z"/>
		
			<path fill-rule="evenodd" clip-rule="evenodd" fill="#FFD24D" stroke="#282425" stroke-linecap="round" stroke-linejoin="round" stroke-miterlimit="10" d="
			M169.57,147.96c0-0.97,6.86-1.75,15.32-1.75c8.46,0,15.32,0.78,15.32,1.75c0,0.971-6.86,1.76-15.32,1.76
			C176.43,149.72,169.57,148.931,169.57,147.96z"/>
	</g>
</g>
<g>
	<g>
		
			<path fill-rule="evenodd" clip-rule="evenodd" fill="#FFD24D" stroke="#282425" stroke-linecap="round" stroke-linejoin="round" stroke-miterlimit="10" d="
			M169.57,142.689v4.4c0,0,6.02,1.75,16.63,1.75s14.01-0.88,14.01-0.88v-5.271H169.57z"/>
		
			<path fill-rule="evenodd" clip-rule="evenodd" fill="#FFD24D" stroke="#282425" stroke-linecap="round" stroke-linejoin="round" stroke-miterlimit="10" d="
			M169.57,142.689c0-0.97,6.86-1.75,15.32-1.75c8.46,0,15.32,0.78,15.32,1.75c0,0.971-6.86,1.761-15.32,1.761
			C176.43,144.45,169.57,143.66,169.57,142.689z"/>
	</g>
</g>
<g>
	<g>
		
			<path fill-rule="evenodd" clip-rule="evenodd" fill="#FFD24D" stroke="#282425" stroke-linecap="round" stroke-linejoin="round" stroke-miterlimit="10" d="
			M169.57,138.3v4.39c0,0,6.02,1.761,16.63,1.761s14.01-0.881,14.01-0.881v-5.27H169.57z"/>
		
			<ellipse fill-rule="evenodd" clip-rule="evenodd" fill="#FFD24D" stroke="#282425" stroke-linecap="round" stroke-linejoin="round" stroke-miterlimit="10" cx="184.89" cy="137.59" rx="15.32" ry="1.76"/>
	</g>
</g>
<g>
	<g>
		
			<path fill-rule="evenodd" clip-rule="evenodd" fill="#FFD24D" stroke="#282425" stroke-linecap="round" stroke-linejoin="round" stroke-miterlimit="10" d="
			M173.07,132.79v4.391c0,0,6.02,1.759,16.63,1.759c10.619,0,14.01-0.879,14.01-0.879v-5.271H173.07z"/>
		
			<ellipse fill-rule="evenodd" clip-rule="evenodd" fill="#FFD24D" stroke="#282425" stroke-linecap="round" stroke-linejoin="round" stroke-miterlimit="10" cx="188.39" cy="132.79" rx="15.32" ry="1.76"/>
	</g>
</g>
<g>
	<g>
		<g>
			<g>
				
					<path fill-rule="evenodd" clip-rule="evenodd" fill="#FFD24D" stroke="#282425" stroke-linecap="round" stroke-linejoin="round" stroke-miterlimit="10" d="
					M282.569,212.649v4.391c0,0,6.021,1.76,16.631,1.76s14.01-0.88,14.01-0.88v-5.271H282.569z"/>
				
					<path fill-rule="evenodd" clip-rule="evenodd" fill="#FFD24D" stroke="#282425" stroke-linecap="round" stroke-linejoin="round" stroke-miterlimit="10" d="
					M282.569,212.649c0-0.969,6.861-1.749,15.32-1.749c8.46,0,15.32,0.78,15.32,1.749c0,0.971-6.86,1.761-15.32,1.761
					C289.431,214.41,282.569,213.62,282.569,212.649z"/>
			</g>
		</g>
		<g>
			<g>
				
					<path fill-rule="evenodd" clip-rule="evenodd" fill="#FFD24D" stroke="#282425" stroke-linecap="round" stroke-linejoin="round" stroke-miterlimit="10" d="
					M283.569,207.38v4.39c0,0,6.021,1.761,16.631,1.761s14.01-0.881,14.01-0.881v-5.27H283.569z"/>
				
					<path fill-rule="evenodd" clip-rule="evenodd" fill="#FFD24D" stroke="#282425" stroke-linecap="round" stroke-linejoin="round" stroke-miterlimit="10" d="
					M283.569,207.38c0-0.97,6.861-1.75,15.32-1.75c8.46,0,15.32,0.78,15.32,1.75c0,0.971-6.86,1.76-15.32,1.76
					C290.431,209.14,283.569,208.351,283.569,207.38z"/>
			</g>
		</g>
		<g>
			<g>
				
					<path fill-rule="evenodd" clip-rule="evenodd" fill="#FFD24D" stroke="#282425" stroke-linecap="round" stroke-linejoin="round" stroke-miterlimit="10" d="
					M282.569,201.52v4.391c0,0,6.021,1.76,16.631,1.76s14.01-0.88,14.01-0.88v-5.271H282.569z"/>
				
					<path fill-rule="evenodd" clip-rule="evenodd" fill="#FFD24D" stroke="#282425" stroke-linecap="round" stroke-linejoin="round" stroke-miterlimit="10" d="
					M282.569,202.23c0-0.971,6.861-1.75,15.32-1.75c8.46,0,15.32,0.779,15.32,1.75c0,0.97-6.86,1.76-15.32,1.76
					C289.431,203.99,282.569,203.2,282.569,202.23z"/>
			</g>
		</g>
		<g>
			<g>
				
					<path fill-rule="evenodd" clip-rule="evenodd" fill="#FFD24D" stroke="#282425" stroke-linecap="round" stroke-linejoin="round" stroke-miterlimit="10" d="
					M282.569,196.25v4.39c0,0,6.021,1.761,16.631,1.761s14.01-0.881,14.01-0.881v-5.27H282.569z"/>
				
					<path fill-rule="evenodd" clip-rule="evenodd" fill="#FFD24D" stroke="#282425" stroke-linecap="round" stroke-linejoin="round" stroke-miterlimit="10" d="
					M282.569,196.96c0-0.97,6.861-1.75,15.32-1.75c8.46,0,15.32,0.78,15.32,1.75c0,0.971-6.86,1.76-15.32,1.76
					C289.431,198.72,282.569,197.931,282.569,196.96z"/>
			</g>
		</g>
		<g>
			<g>
				
					<path fill-rule="evenodd" clip-rule="evenodd" fill="#FFD24D" stroke="#282425" stroke-linecap="round" stroke-linejoin="round" stroke-miterlimit="10" d="
					M281.569,191.689v4.4c0,0,6.021,1.75,16.631,1.75s14.01-0.88,14.01-0.88v-5.271H281.569z"/>
				
					<path fill-rule="evenodd" clip-rule="evenodd" fill="#FFD24D" stroke="#282425" stroke-linecap="round" stroke-linejoin="round" stroke-miterlimit="10" d="
					M281.569,191.689c0-0.97,6.861-1.75,15.32-1.75c8.46,0,15.32,0.78,15.32,1.75c0,0.971-6.86,1.761-15.32,1.761
					C288.431,193.45,281.569,192.66,281.569,191.689z"/>
			</g>
		</g>
		<g>
			<g>
				
					<path fill-rule="evenodd" clip-rule="evenodd" fill="#FFD24D" stroke="#282425" stroke-linecap="round" stroke-linejoin="round" stroke-miterlimit="10" d="
					M282.569,187.3v4.39c0,0,6.021,1.761,16.631,1.761s14.01-0.881,14.01-0.881v-5.27H282.569z"/>
				
					<ellipse fill-rule="evenodd" clip-rule="evenodd" fill="#FFD24D" stroke="#282425" stroke-linecap="round" stroke-linejoin="round" stroke-miterlimit="10" cx="297.89" cy="186.59" rx="15.32" ry="1.76"/>
			</g>
		</g>
		<g>
			<g>
				
					<path fill-rule="evenodd" clip-rule="evenodd" fill="#FFD24D" stroke="#282425" stroke-linecap="round" stroke-linejoin="round" stroke-miterlimit="10" d="
					M286.069,181.79v4.391c0,0,6.021,1.759,16.631,1.759c10.619,0,14.01-0.879,14.01-0.879v-5.271H286.069z"/>
				
					<ellipse fill-rule="evenodd" clip-rule="evenodd" fill="#FFD24D" stroke="#282425" stroke-linecap="round" stroke-linejoin="round" stroke-miterlimit="10" cx="301.39" cy="181.79" rx="15.32" ry="1.76"/>
			</g>
		</g>
		<g>
			<g>
				
					<path fill-rule="evenodd" clip-rule="evenodd" fill="#FFD24D" stroke="#282425" stroke-linecap="round" stroke-linejoin="round" stroke-miterlimit="10" d="
					M283.569,175.65v4.39c0,0,6.021,1.76,16.631,1.76s14.01-0.88,14.01-0.88v-5.27H283.569z"/>
				
					<path fill-rule="evenodd" clip-rule="evenodd" fill="#FFD24D" stroke="#282425" stroke-linecap="round" stroke-linejoin="round" stroke-miterlimit="10" d="
					M283.569,175.65c0-0.97,6.861-1.75,15.32-1.75c8.46,0,15.32,0.78,15.32,1.75s-6.86,1.76-15.32,1.76
					C290.431,177.41,283.569,176.62,283.569,175.65z"/>
			</g>
		</g>
		<g>
			<g>
				
					<path fill-rule="evenodd" clip-rule="evenodd" fill="#FFD24D" stroke="#282425" stroke-linecap="round" stroke-linejoin="round" stroke-miterlimit="10" d="
					M283.569,170.38v4.39c0,0,6.021,1.761,16.631,1.761s14.01-0.88,14.01-0.88v-5.271H283.569z"/>
				
					<path fill-rule="evenodd" clip-rule="evenodd" fill="#FFD24D" stroke="#282425" stroke-linecap="round" stroke-linejoin="round" stroke-miterlimit="10" d="
					M283.569,170.38c0-0.97,6.861-1.75,15.32-1.75c8.46,0,15.32,0.78,15.32,1.75c0,0.971-6.86,1.76-15.32,1.76
					C290.431,172.14,283.569,171.351,283.569,170.38z"/>
			</g>
		</g>
		<g>
			<g>
				
					<path fill-rule="evenodd" clip-rule="evenodd" fill="#FFD24D" stroke="#282425" stroke-linecap="round" stroke-linejoin="round" stroke-miterlimit="10" d="
					M281.569,164.52v4.391c0,0,6.021,1.76,16.631,1.76s14.01-0.88,14.01-0.88v-5.271H281.569z"/>
				
					<path fill-rule="evenodd" clip-rule="evenodd" fill="#FFD24D" stroke="#282425" stroke-linecap="round" stroke-linejoin="round" stroke-miterlimit="10" d="
					M281.569,165.23c0-0.971,6.861-1.75,15.32-1.75c8.46,0,15.32,0.779,15.32,1.75c0,0.97-6.86,1.76-15.32,1.76
					C288.431,166.99,281.569,166.2,281.569,165.23z"/>
			</g>
		</g>
		<g>
			<g>
				
					<path fill-rule="evenodd" clip-rule="evenodd" fill="#FFD24D" stroke="#282425" stroke-linecap="round" stroke-linejoin="round" stroke-miterlimit="10" d="
					M283.569,159.25v4.39c0,0,6.021,1.761,16.631,1.761s14.01-0.881,14.01-0.881v-5.27H283.569z"/>
				
					<path fill-rule="evenodd" clip-rule="evenodd" fill="#FFD24D" stroke="#282425" stroke-linecap="round" stroke-linejoin="round" stroke-miterlimit="10" d="
					M283.569,159.96c0-0.97,6.861-1.75,15.32-1.75c8.46,0,15.32,0.78,15.32,1.75c0,0.971-6.86,1.76-15.32,1.76
					C290.431,161.72,283.569,160.931,283.569,159.96z"/>
			</g>
		</g>
		<g>
			<g>
				
					<path fill-rule="evenodd" clip-rule="evenodd" fill="#FFD24D" stroke="#282425" stroke-linecap="round" stroke-linejoin="round" stroke-miterlimit="10" d="
					M283.569,154.689v4.4c0,0,6.021,1.75,16.631,1.75s14.01-0.88,14.01-0.88v-5.271H283.569z"/>
				
					<path fill-rule="evenodd" clip-rule="evenodd" fill="#FFD24D" stroke="#282425" stroke-linecap="round" stroke-linejoin="round" stroke-miterlimit="10" d="
					M283.569,154.689c0-0.97,6.861-1.75,15.32-1.75c8.46,0,15.32,0.78,15.32,1.75c0,0.971-6.86,1.761-15.32,1.761
					C290.431,156.45,283.569,155.66,283.569,154.689z"/>
			</g>
		</g>
		<g>
			<g>
				
					<path fill-rule="evenodd" clip-rule="evenodd" fill="#FFD24D" stroke="#282425" stroke-linecap="round" stroke-linejoin="round" stroke-miterlimit="10" d="
					M284.569,150.3v4.39c0,0,6.021,1.761,16.631,1.761s14.01-0.881,14.01-0.881v-5.27H284.569z"/>
				
					<ellipse fill-rule="evenodd" clip-rule="evenodd" fill="#FFD24D" stroke="#282425" stroke-linecap="round" stroke-linejoin="round" stroke-miterlimit="10" cx="299.89" cy="149.59" rx="15.32" ry="1.76"/>
			</g>
		</g>
		<g>
			<g>
				
					<path fill-rule="evenodd" clip-rule="evenodd" fill="#FFD24D" stroke="#282425" stroke-linecap="round" stroke-linejoin="round" stroke-miterlimit="10" d="
					M279.069,144.79v4.391c0,0,6.021,1.759,16.631,1.759c10.619,0,14.01-0.879,14.01-0.879v-5.271H279.069z"/>
				
					<ellipse fill-rule="evenodd" clip-rule="evenodd" fill="#FFD24D" stroke="#282425" stroke-linecap="round" stroke-linejoin="round" stroke-miterlimit="10" cx="294.39" cy="144.79" rx="15.32" ry="1.76"/>
			</g>
		</g>
	</g>
	<g>
		<g>
			<g>
				
					<path fill-rule="evenodd" clip-rule="evenodd" fill="#FFD24D" stroke="#282425" stroke-linecap="round" stroke-linejoin="round" stroke-miterlimit="10" d="
					M269.569,230.649v4.391c0,0,6.021,1.76,16.631,1.76s14.01-0.88,14.01-0.88v-5.271H269.569z"/>
				
					<path fill-rule="evenodd" clip-rule="evenodd" fill="#FFD24D" stroke="#282425" stroke-linecap="round" stroke-linejoin="round" stroke-miterlimit="10" d="
					M269.569,230.649c0-0.969,6.861-1.75,15.32-1.75c8.46,0,15.32,0.781,15.32,1.75c0,0.971-6.86,1.761-15.32,1.761
					C276.431,232.41,269.569,231.62,269.569,230.649z"/>
			</g>
		</g>
		<g>
			<g>
				
					<path fill-rule="evenodd" clip-rule="evenodd" fill="#FFD24D" stroke="#282425" stroke-linecap="round" stroke-linejoin="round" stroke-miterlimit="10" d="
					M269.569,225.38v4.39c0,0,6.021,1.761,16.631,1.761s14.01-0.881,14.01-0.881v-5.27H269.569z"/>
				
					<path fill-rule="evenodd" clip-rule="evenodd" fill="#FFD24D" stroke="#282425" stroke-linecap="round" stroke-linejoin="round" stroke-miterlimit="10" d="
					M269.569,225.38c0-0.97,6.861-1.75,15.32-1.75c8.46,0,15.32,0.78,15.32,1.75c0,0.971-6.86,1.76-15.32,1.76
					C276.431,227.14,269.569,226.351,269.569,225.38z"/>
			</g>
		</g>
		<g>
			<g>
				
					<path fill-rule="evenodd" clip-rule="evenodd" fill="#FFD24D" stroke="#282425" stroke-linecap="round" stroke-linejoin="round" stroke-miterlimit="10" d="
					M269.569,219.52v4.391c0,0,6.021,1.76,16.631,1.76s14.01-0.88,14.01-0.88v-5.271H269.569z"/>
				
					<path fill-rule="evenodd" clip-rule="evenodd" fill="#FFD24D" stroke="#282425" stroke-linecap="round" stroke-linejoin="round" stroke-miterlimit="10" d="
					M269.569,220.23c0-0.971,6.861-1.75,15.32-1.75c8.46,0,15.32,0.779,15.32,1.75c0,0.97-6.86,1.76-15.32,1.76
					C276.431,221.99,269.569,221.2,269.569,220.23z"/>
			</g>
		</g>
		<g>
			<g>
				
					<path fill-rule="evenodd" clip-rule="evenodd" fill="#FFD24D" stroke="#282425" stroke-linecap="round" stroke-linejoin="round" stroke-miterlimit="10" d="
					M269.569,214.25v4.39c0,0,6.021,1.76,16.631,1.76s14.01-0.88,14.01-0.88v-5.27H269.569z"/>
				
					<path fill-rule="evenodd" clip-rule="evenodd" fill="#FFD24D" stroke="#282425" stroke-linecap="round" stroke-linejoin="round" stroke-miterlimit="10" d="
					M269.569,214.96c0-0.97,6.861-1.75,15.32-1.75c8.46,0,15.32,0.78,15.32,1.75c0,0.971-6.86,1.76-15.32,1.76
					C276.431,216.72,269.569,215.931,269.569,214.96z"/>
			</g>
		</g>
		<g>
			<g>
				
					<path fill-rule="evenodd" clip-rule="evenodd" fill="#FFD24D" stroke="#282425" stroke-linecap="round" stroke-linejoin="round" stroke-miterlimit="10" d="
					M269.569,209.689v4.4c0,0,6.021,1.75,16.631,1.75s14.01-0.88,14.01-0.88v-5.271H269.569z"/>
				
					<path fill-rule="evenodd" clip-rule="evenodd" fill="#FFD24D" stroke="#282425" stroke-linecap="round" stroke-linejoin="round" stroke-miterlimit="10" d="
					M269.569,209.689c0-0.97,6.861-1.75,15.32-1.75c8.46,0,15.32,0.78,15.32,1.75c0,0.971-6.86,1.761-15.32,1.761
					C276.431,211.45,269.569,210.66,269.569,209.689z"/>
			</g>
		</g>
		<g>
			<g>
				
					<path fill-rule="evenodd" clip-rule="evenodd" fill="#FFD24D" stroke="#282425" stroke-linecap="round" stroke-linejoin="round" stroke-miterlimit="10" d="
					M269.569,205.3v4.39c0,0,6.021,1.761,16.631,1.761s14.01-0.881,14.01-0.881v-5.27H269.569z"/>
				
					<ellipse fill-rule="evenodd" clip-rule="evenodd" fill="#FFD24D" stroke="#282425" stroke-linecap="round" stroke-linejoin="round" stroke-miterlimit="10" cx="284.89" cy="204.59" rx="15.32" ry="1.76"/>
			</g>
		</g>
		<g>
			<g>
				
					<path fill-rule="evenodd" clip-rule="evenodd" fill="#FFD24D" stroke="#282425" stroke-linecap="round" stroke-linejoin="round" stroke-miterlimit="10" d="
					M273.069,199.79v4.391c0,0,6.021,1.759,16.631,1.759c10.619,0,14.01-0.879,14.01-0.879v-5.271H273.069z"/>
				
					<ellipse fill-rule="evenodd" clip-rule="evenodd" fill="#FFD24D" stroke="#282425" stroke-linecap="round" stroke-linejoin="round" stroke-miterlimit="10" cx="288.39" cy="199.79" rx="15.32" ry="1.76"/>
			</g>
		</g>
	</g>
	<g>
		<g>
			<g>
				
					<path fill-rule="evenodd" clip-rule="evenodd" fill="#FFD24D" stroke="#282425" stroke-linecap="round" stroke-linejoin="round" stroke-miterlimit="10" d="
					M281.569,138.65v4.39c0,0,6.021,1.76,16.631,1.76s14.01-0.88,14.01-0.88v-5.27H281.569z"/>
				
					<path fill-rule="evenodd" clip-rule="evenodd" fill="#FFD24D" stroke="#282425" stroke-linecap="round" stroke-linejoin="round" stroke-miterlimit="10" d="
					M281.569,138.65c0-0.97,6.861-1.75,15.32-1.75c8.46,0,15.32,0.78,15.32,1.75s-6.86,1.76-15.32,1.76
					C288.431,140.41,281.569,139.62,281.569,138.65z"/>
			</g>
		</g>
		<g>
			<g>
				
					<path fill-rule="evenodd" clip-rule="evenodd" fill="#FFD24D" stroke="#282425" stroke-linecap="round" stroke-linejoin="round" stroke-miterlimit="10" d="
					M281.569,133.38v4.39c0,0,6.021,1.761,16.631,1.761s14.01-0.88,14.01-0.88v-5.271H281.569z"/>
				
					<path fill-rule="evenodd" clip-rule="evenodd" fill="#FFD24D" stroke="#282425" stroke-linecap="round" stroke-linejoin="round" stroke-miterlimit="10" d="
					M281.569,133.38c0-0.97,6.861-1.75,15.32-1.75c8.46,0,15.32,0.78,15.32,1.75c0,0.971-6.86,1.76-15.32,1.76
					C288.431,135.14,281.569,134.351,281.569,133.38z"/>
			</g>
		</g>
		<g>
			<g>
				
					<path fill-rule="evenodd" clip-rule="evenodd" fill="#FFD24D" stroke="#282425" stroke-linecap="round" stroke-linejoin="round" stroke-miterlimit="10" d="
					M281.569,127.52v4.391c0,0,6.021,1.76,16.631,1.76s14.01-0.88,14.01-0.88v-5.271H281.569z"/>
				
					<path fill-rule="evenodd" clip-rule="evenodd" fill="#FFD24D" stroke="#282425" stroke-linecap="round" stroke-linejoin="round" stroke-miterlimit="10" d="
					M281.569,128.23c0-0.971,6.861-1.75,15.32-1.75c8.46,0,15.32,0.78,15.32,1.75c0,0.97-6.86,1.76-15.32,1.76
					C288.431,129.99,281.569,129.2,281.569,128.23z"/>
			</g>
		</g>
		<g>
			<g>
				
					<path fill-rule="evenodd" clip-rule="evenodd" fill="#FFD24D" stroke="#282425" stroke-linecap="round" stroke-linejoin="round" stroke-miterlimit="10" d="
					M281.569,122.25v4.39c0,0,6.021,1.761,16.631,1.761s14.01-0.881,14.01-0.881v-5.27H281.569z"/>
				
					<path fill-rule="evenodd" clip-rule="evenodd" fill="#FFD24D" stroke="#282425" stroke-linecap="round" stroke-linejoin="round" stroke-miterlimit="10" d="
					M281.569,122.96c0-0.97,6.861-1.75,15.32-1.75c8.46,0,15.32,0.78,15.32,1.75c0,0.97-6.86,1.76-15.32,1.76
					C288.431,124.72,281.569,123.93,281.569,122.96z"/>
			</g>
		</g>
		<g>
			<g>
				
					<path fill-rule="evenodd" clip-rule="evenodd" fill="#FFD24D" stroke="#282425" stroke-linecap="round" stroke-linejoin="round" stroke-miterlimit="10" d="
					M281.569,117.69v4.4c0,0,6.021,1.75,16.631,1.75s14.01-0.88,14.01-0.88v-5.27H281.569z"/>
				
					<path fill-rule="evenodd" clip-rule="evenodd" fill="#FFD24D" stroke="#282425" stroke-linecap="round" stroke-linejoin="round" stroke-miterlimit="10" d="
					M281.569,117.69c0-0.97,6.861-1.75,15.32-1.75c8.46,0,15.32,0.78,15.32,1.75c0,0.97-6.86,1.76-15.32,1.76
					C288.431,119.45,281.569,118.66,281.569,117.69z"/>
			</g>
		</g>
		<g>
			<g>
				
					<path fill-rule="evenodd" clip-rule="evenodd" fill="#FFD24D" stroke="#282425" stroke-linecap="round" stroke-linejoin="round" stroke-miterlimit="10" d="
					M281.569,113.3v4.39c0,0,6.021,1.76,16.631,1.76s14.01-0.88,14.01-0.88v-5.27H281.569z"/>
				
					<ellipse fill-rule="evenodd" clip-rule="evenodd" fill="#FFD24D" stroke="#282425" stroke-linecap="round" stroke-linejoin="round" stroke-miterlimit="10" cx="296.89" cy="112.59" rx="15.32" ry="1.76"/>
			</g>
		</g>
		<g>
			<g>
				
					<path fill-rule="evenodd" clip-rule="evenodd" fill="#FFD24D" stroke="#282425" stroke-linecap="round" stroke-linejoin="round" stroke-miterlimit="10" d="
					M285.069,107.79v4.39c0,0,6.021,1.76,16.631,1.76c10.619,0,14.01-0.88,14.01-0.88v-5.27H285.069z"/>
				
					<ellipse fill-rule="evenodd" clip-rule="evenodd" fill="#FFD24D" stroke="#282425" stroke-linecap="round" stroke-linejoin="round" stroke-miterlimit="10" cx="300.39" cy="107.79" rx="15.32" ry="1.76"/>
			</g>
		</g>
	</g>
	<g>
		<g>
			
				<path fill-rule="evenodd" clip-rule="evenodd" fill="#FFD24D" stroke="#282425" stroke-linecap="round" stroke-linejoin="round" stroke-miterlimit="10" d="
				M239.569,222.649v4.391c0,0,6.021,1.76,16.631,1.76s14.01-0.88,14.01-0.88v-5.271H239.569z"/>
			
				<path fill-rule="evenodd" clip-rule="evenodd" fill="#FFD24D" stroke="#282425" stroke-linecap="round" stroke-linejoin="round" stroke-miterlimit="10" d="
				M239.569,222.649c0-0.969,6.861-1.75,15.32-1.75c8.46,0,15.32,0.781,15.32,1.75c0,0.971-6.86,1.761-15.32,1.761
				C246.431,224.41,239.569,223.62,239.569,222.649z"/>
		</g>
	</g>
	<g>
		<g>
			
				<path fill-rule="evenodd" clip-rule="evenodd" fill="#FFD24D" stroke="#282425" stroke-linecap="round" stroke-linejoin="round" stroke-miterlimit="10" d="
				M240.569,217.38v4.39c0,0,6.021,1.761,16.631,1.761s14.01-0.881,14.01-0.881v-5.27H240.569z"/>
			
				<path fill-rule="evenodd" clip-rule="evenodd" fill="#FFD24D" stroke="#282425" stroke-linecap="round" stroke-linejoin="round" stroke-miterlimit="10" d="
				M240.569,217.38c0-0.97,6.861-1.75,15.32-1.75c8.46,0,15.32,0.78,15.32,1.75c0,0.971-6.86,1.76-15.32,1.76
				C247.431,219.14,240.569,218.351,240.569,217.38z"/>
		</g>
	</g>
	<g>
		<g>
			
				<path fill-rule="evenodd" clip-rule="evenodd" fill="#FFD24D" stroke="#282425" stroke-linecap="round" stroke-linejoin="round" stroke-miterlimit="10" d="
				M239.569,211.52v4.391c0,0,6.021,1.76,16.631,1.76s14.01-0.88,14.01-0.88v-5.271H239.569z"/>
			
				<path fill-rule="evenodd" clip-rule="evenodd" fill="#FFD24D" stroke="#282425" stroke-linecap="round" stroke-linejoin="round" stroke-miterlimit="10" d="
				M239.569,212.23c0-0.971,6.861-1.75,15.32-1.75c8.46,0,15.32,0.779,15.32,1.75c0,0.97-6.86,1.76-15.32,1.76
				C246.431,213.99,239.569,213.2,239.569,212.23z"/>
		</g>
	</g>
	<g>
		<g>
			
				<path fill-rule="evenodd" clip-rule="evenodd" fill="#FFD24D" stroke="#282425" stroke-linecap="round" stroke-linejoin="round" stroke-miterlimit="10" d="
				M239.569,206.25v4.39c0,0,6.021,1.761,16.631,1.761s14.01-0.881,14.01-0.881v-5.27H239.569z"/>
			
				<path fill-rule="evenodd" clip-rule="evenodd" fill="#FFD24D" stroke="#282425" stroke-linecap="round" stroke-linejoin="round" stroke-miterlimit="10" d="
				M239.569,206.96c0-0.97,6.861-1.75,15.32-1.75c8.46,0,15.32,0.78,15.32,1.75c0,0.971-6.86,1.76-15.32,1.76
				C246.431,208.72,239.569,207.931,239.569,206.96z"/>
		</g>
	</g>
	<g>
		<g>
			
				<path fill-rule="evenodd" clip-rule="evenodd" fill="#FFD24D" stroke="#282425" stroke-linecap="round" stroke-linejoin="round" stroke-miterlimit="10" d="
				M238.569,201.689v4.4c0,0,6.021,1.75,16.631,1.75s14.01-0.88,14.01-0.88v-5.271H238.569z"/>
			
				<path fill-rule="evenodd" clip-rule="evenodd" fill="#FFD24D" stroke="#282425" stroke-linecap="round" stroke-linejoin="round" stroke-miterlimit="10" d="
				M238.569,201.689c0-0.97,6.861-1.75,15.32-1.75c8.46,0,15.32,0.78,15.32,1.75c0,0.971-6.86,1.761-15.32,1.761
				C245.431,203.45,238.569,202.66,238.569,201.689z"/>
		</g>
	</g>
	<g>
		<g>
			
				<path fill-rule="evenodd" clip-rule="evenodd" fill="#FFD24D" stroke="#282425" stroke-linecap="round" stroke-linejoin="round" stroke-miterlimit="10" d="
				M239.569,197.3v4.39c0,0,6.021,1.761,16.631,1.761s14.01-0.881,14.01-0.881v-5.27H239.569z"/>
			
				<ellipse fill-rule="evenodd" clip-rule="evenodd" fill="#FFD24D" stroke="#282425" stroke-linecap="round" stroke-linejoin="round" stroke-miterlimit="10" cx="254.89" cy="196.59" rx="15.32" ry="1.76"/>
		</g>
	</g>
	<g>
		<g>
			
				<path fill-rule="evenodd" clip-rule="evenodd" fill="#FFD24D" stroke="#282425" stroke-linecap="round" stroke-linejoin="round" stroke-miterlimit="10" d="
				M243.069,191.79v4.391c0,0,6.021,1.759,16.631,1.759c10.619,0,14.01-0.879,14.01-0.879v-5.271H243.069z"/>
			
				<ellipse fill-rule="evenodd" clip-rule="evenodd" fill="#FFD24D" stroke="#282425" stroke-linecap="round" stroke-linejoin="round" stroke-miterlimit="10" cx="258.39" cy="191.79" rx="15.32" ry="1.76"/>
		</g>
	</g>
	<g>
		<g>
			
				<path fill-rule="evenodd" clip-rule="evenodd" fill="#FFD24D" stroke="#282425" stroke-linecap="round" stroke-linejoin="round" stroke-miterlimit="10" d="
				M240.569,185.65v4.39c0,0,6.021,1.76,16.631,1.76s14.01-0.88,14.01-0.88v-5.27H240.569z"/>
			
				<path fill-rule="evenodd" clip-rule="evenodd" fill="#FFD24D" stroke="#282425" stroke-linecap="round" stroke-linejoin="round" stroke-miterlimit="10" d="
				M240.569,185.65c0-0.97,6.861-1.75,15.32-1.75c8.46,0,15.32,0.78,15.32,1.75s-6.86,1.76-15.32,1.76
				C247.431,187.41,240.569,186.62,240.569,185.65z"/>
		</g>
	</g>
	<g>
		<g>
			
				<path fill-rule="evenodd" clip-rule="evenodd" fill="#FFD24D" stroke="#282425" stroke-linecap="round" stroke-linejoin="round" stroke-miterlimit="10" d="
				M240.569,180.38v4.39c0,0,6.021,1.761,16.631,1.761s14.01-0.88,14.01-0.88v-5.271H240.569z"/>
			
				<path fill-rule="evenodd" clip-rule="evenodd" fill="#FFD24D" stroke="#282425" stroke-linecap="round" stroke-linejoin="round" stroke-miterlimit="10" d="
				M240.569,180.38c0-0.97,6.861-1.75,15.32-1.75c8.46,0,15.32,0.78,15.32,1.75c0,0.971-6.86,1.76-15.32,1.76
				C247.431,182.14,240.569,181.351,240.569,180.38z"/>
		</g>
	</g>
	<g>
		<g>
			
				<path fill-rule="evenodd" clip-rule="evenodd" fill="#FFD24D" stroke="#282425" stroke-linecap="round" stroke-linejoin="round" stroke-miterlimit="10" d="
				M238.569,174.52v4.391c0,0,6.021,1.76,16.631,1.76s14.01-0.88,14.01-0.88v-5.271H238.569z"/>
			
				<path fill-rule="evenodd" clip-rule="evenodd" fill="#FFD24D" stroke="#282425" stroke-linecap="round" stroke-linejoin="round" stroke-miterlimit="10" d="
				M238.569,175.23c0-0.971,6.861-1.75,15.32-1.75c8.46,0,15.32,0.779,15.32,1.75c0,0.97-6.86,1.76-15.32,1.76
				C245.431,176.99,238.569,176.2,238.569,175.23z"/>
		</g>
	</g>
	<g>
		<g>
			
				<path fill-rule="evenodd" clip-rule="evenodd" fill="#FFD24D" stroke="#282425" stroke-linecap="round" stroke-linejoin="round" stroke-miterlimit="10" d="
				M240.569,169.25v4.39c0,0,6.021,1.761,16.631,1.761s14.01-0.881,14.01-0.881v-5.27H240.569z"/>
			
				<path fill-rule="evenodd" clip-rule="evenodd" fill="#FFD24D" stroke="#282425" stroke-linecap="round" stroke-linejoin="round" stroke-miterlimit="10" d="
				M240.569,169.96c0-0.97,6.861-1.75,15.32-1.75c8.46,0,15.32,0.78,15.32,1.75c0,0.971-6.86,1.76-15.32,1.76
				C247.431,171.72,240.569,170.931,240.569,169.96z"/>
		</g>
	</g>
	<g>
		<g>
			
				<path fill-rule="evenodd" clip-rule="evenodd" fill="#FFD24D" stroke="#282425" stroke-linecap="round" stroke-linejoin="round" stroke-miterlimit="10" d="
				M240.569,164.689v4.4c0,0,6.021,1.75,16.631,1.75s14.01-0.88,14.01-0.88v-5.271H240.569z"/>
			
				<path fill-rule="evenodd" clip-rule="evenodd" fill="#FFD24D" stroke="#282425" stroke-linecap="round" stroke-linejoin="round" stroke-miterlimit="10" d="
				M240.569,164.689c0-0.97,6.861-1.75,15.32-1.75c8.46,0,15.32,0.78,15.32,1.75c0,0.971-6.86,1.761-15.32,1.761
				C247.431,166.45,240.569,165.66,240.569,164.689z"/>
		</g>
	</g>
	<g>
		<g>
			
				<path fill-rule="evenodd" clip-rule="evenodd" fill="#FFD24D" stroke="#282425" stroke-linecap="round" stroke-linejoin="round" stroke-miterlimit="10" d="
				M241.569,160.3v4.39c0,0,6.021,1.761,16.631,1.761s14.01-0.881,14.01-0.881v-5.27H241.569z"/>
			
				<ellipse fill-rule="evenodd" clip-rule="evenodd" fill="#FFD24D" stroke="#282425" stroke-linecap="round" stroke-linejoin="round" stroke-miterlimit="10" cx="256.89" cy="159.59" rx="15.32" ry="1.76"/>
		</g>
	</g>
	<g>
		<g>
			
				<path fill-rule="evenodd" clip-rule="evenodd" fill="#FFD24D" stroke="#282425" stroke-linecap="round" stroke-linejoin="round" stroke-miterlimit="10" d="
				M236.069,154.79v4.391c0,0,6.021,1.759,16.631,1.759c10.619,0,14.01-0.879,14.01-0.879v-5.271H236.069z"/>
			
				<ellipse fill-rule="evenodd" clip-rule="evenodd" fill="#FFD24D" stroke="#282425" stroke-linecap="round" stroke-linejoin="round" stroke-miterlimit="10" cx="251.39" cy="154.79" rx="15.32" ry="1.76"/>
		</g>
	</g>
</g>
<rect x="129" y="159.5" fill-rule="evenodd" clip-rule="evenodd" fill="#FFDFBF" stroke="#282425" stroke-width="4" stroke-linecap="round" stroke-linejoin="round" stroke-miterlimit="10" width="15" height="14"/>
<circle fill-rule="evenodd" clip-rule="evenodd" fill="#282425" cx="118.5" cy="164" r="2.5"/>
<circle fill-rule="evenodd" clip-rule="evenodd" fill="#282425" cx="118.5" cy="175" r="2.5"/>
<circle fill-rule="evenodd" clip-rule="evenodd" fill="#282425" cx="118.5" cy="185" r="2.5"/>
</svg>
