<?xml version="1.0" encoding="utf-8"?>
<!-- Generator: Adobe Illustrator 16.0.0, SVG Export Plug-In . SVG Version: 6.00 Build 0)  -->
<!DOCTYPE svg PUBLIC "-//W3C//DTD SVG 1.1//EN" "http://www.w3.org/Graphics/SVG/1.1/DTD/svg11.dtd">
<svg version="1.1" id="Layer_1" xmlns="http://www.w3.org/2000/svg" xmlns:xlink="http://www.w3.org/1999/xlink" x="0px" y="0px"
	 width="527px" height="374px" viewBox="0 0 527 374" enable-background="new 0 0 527 374" xml:space="preserve">
<g>
	<g>
		
			<path fill-rule="evenodd" clip-rule="evenodd" fill="#282425" stroke="#282425" stroke-width="10" stroke-linecap="round" stroke-linejoin="round" stroke-miterlimit="10" d="
			M252.81,72.11c0-23.73,19.2-42.97,42.89-42.97c23.69,0,42.89,19.24,42.89,42.97s-19.2,42.96-42.89,42.96
			C272.01,115.07,252.81,95.84,252.81,72.11z"/>
		
			<path fill-rule="evenodd" clip-rule="evenodd" fill="#282425" stroke="#282425" stroke-width="10" stroke-linecap="round" stroke-linejoin="round" stroke-miterlimit="10" d="
			M214.82,52.47c0-23.73,19.2-42.97,42.89-42.97s42.89,19.24,42.89,42.97s-19.2,42.96-42.89,42.96S214.82,76.2,214.82,52.47z"/>
		
			<path fill-rule="evenodd" clip-rule="evenodd" fill="#282425" stroke="#282425" stroke-width="10" stroke-linecap="round" stroke-linejoin="round" stroke-miterlimit="10" d="
			M202.57,72.11c0-23.73-19.21-42.97-42.89-42.97c-23.69,0-42.89,19.24-42.89,42.97s19.2,42.96,42.89,42.96
			C183.36,115.07,202.57,95.84,202.57,72.11z"/>
		<g>
			
				<path fill-rule="evenodd" clip-rule="evenodd" fill="#282425" stroke="#282425" stroke-width="10" stroke-linecap="round" stroke-linejoin="round" stroke-miterlimit="10" d="
				M154.78,114.46c0-14.58-12.07-26.39-26.96-26.39c-14.89,0-26.96,11.81-26.96,26.39s12.07,26.39,26.96,26.39
				C142.71,140.85,154.78,129.04,154.78,114.46z"/>
			
				<path fill-rule="evenodd" clip-rule="evenodd" fill="#282425" stroke="#282425" stroke-width="10" stroke-linecap="round" stroke-linejoin="round" stroke-miterlimit="10" d="
				M352.07,114.46c0-14.58-12.07-26.39-26.96-26.39c-14.89,0-26.96,11.81-26.96,26.39s12.07,26.39,26.96,26.39
				C340,140.85,352.07,129.04,352.07,114.46z"/>
			
				<path fill-rule="evenodd" clip-rule="evenodd" fill="#282425" stroke="#282425" stroke-width="10" stroke-linecap="round" stroke-linejoin="round" stroke-miterlimit="10" d="
				M159.68,157.42c0-14.57-12.07-26.39-26.96-26.39c-14.89,0-26.96,11.82-26.96,26.39c0,14.58,12.07,26.4,26.96,26.4
				C147.61,183.82,159.68,172,159.68,157.42z"/>
			
				<path fill-rule="evenodd" clip-rule="evenodd" fill="#282425" stroke="#282425" stroke-width="10" stroke-linecap="round" stroke-linejoin="round" stroke-miterlimit="10" d="
				M182.96,184.43c0-14.58-12.07-26.39-26.96-26.39s-26.96,11.81-26.96,26.39c0,14.58,12.07,26.39,26.96,26.39
				S182.96,199.01,182.96,184.43z"/>
			
				<path fill-rule="evenodd" clip-rule="evenodd" fill="#282425" stroke="#282425" stroke-width="10" stroke-linecap="round" stroke-linejoin="round" stroke-miterlimit="10" d="
				M342.27,157.42c0-14.57-12.07-26.39-26.96-26.39s-26.96,11.82-26.96,26.39c0,14.58,12.07,26.4,26.96,26.4
				S342.27,172,342.27,157.42z"/>
			
				<path fill-rule="evenodd" clip-rule="evenodd" fill="#282425" stroke="#282425" stroke-width="10" stroke-linecap="round" stroke-linejoin="round" stroke-miterlimit="10" d="
				M315.31,179.52c0-14.58-12.07-26.39-26.96-26.39s-26.96,11.81-26.96,26.39s12.07,26.39,26.96,26.39S315.31,194.1,315.31,179.52z"
				/>
		</g>
		
			<path fill-rule="evenodd" clip-rule="evenodd" fill="#282425" stroke="#282425" stroke-width="10" stroke-linecap="round" stroke-linejoin="round" stroke-miterlimit="10" d="
			M240.56,52.47c0-23.73-19.21-42.97-42.89-42.97c-23.69,0-42.89,19.24-42.89,42.97s19.2,42.96,42.89,42.96
			C221.35,95.43,240.56,76.2,240.56,52.47z"/>
		<path fill-rule="evenodd" clip-rule="evenodd" fill="#F0F0E1" d="M6.5,348.31c0-9.49,83.12-17.18,185.65-17.18
			c102.53,0,185.65,7.69,185.65,17.18c0,9.5-83.12,17.19-185.65,17.19C89.62,365.5,6.5,357.81,6.5,348.31z"/>
		<g>
			
				<path fill-rule="evenodd" clip-rule="evenodd" fill="#FFCC99" stroke="#282425" stroke-width="10" stroke-linecap="round" stroke-linejoin="round" stroke-miterlimit="10" d="
				M143.75,143.45c6.58,43.39,38.99,69.83,81.49,69.83c47.71,0,82.71-33.32,82.71-86.55c0-53.22-35-87.77-82.71-87.77
				c-44.49,0-77.93,30.03-82.25,77.23c-1.36-5.52-4.86-15.06-12.72-14.62c-11.03,0.61-8.58,33.14-1.23,45.42
				c7.35,12.28,14.71-1.23,14.71-1.23V143.45z"/>
			
				<path fill-rule="evenodd" clip-rule="evenodd" fill="#FFCC99" stroke="#282425" stroke-width="10" stroke-linecap="round" stroke-linejoin="round" stroke-miterlimit="10" d="
				M306.57,145.76c0,0,7.35,13.51,14.7,1.23c7.35-12.28,9.81-44.81-1.22-45.42c-11.03-0.61-13.48,18.41-13.48,18.41V145.76z"/>
		</g>
		
			<path fill-rule="evenodd" clip-rule="evenodd" fill="#282425" stroke="#282425" stroke-width="10" stroke-linecap="round" stroke-linejoin="round" stroke-miterlimit="10" d="
			M220.95,38.96c0,0,1.22,55.24,79.65,55.24C379.03,94.2,220.95,38.96,220.95,38.96z"/>
		
			<path fill-rule="evenodd" clip-rule="evenodd" fill="#99E5FF" stroke="#282425" stroke-width="9" stroke-linecap="round" stroke-linejoin="round" stroke-miterlimit="10" d="
			M176.83,208.37c0,0,13.48,20.87,47.79,20.87c34.32,0,40.44-22.1,40.44-22.1l50.25,104.35H132.72L176.83,208.37z"/>
		
			<rect x="179.28" y="311.49" fill-rule="evenodd" clip-rule="evenodd" fill="#FFCC99" stroke="#282425" stroke-width="9" stroke-linecap="square" stroke-linejoin="round" stroke-miterlimit="10" width="42.89" height="35.6"/>
		
			<rect x="220.95" y="311.49" fill-rule="evenodd" clip-rule="evenodd" fill="#FFCC99" stroke="#282425" stroke-width="9" stroke-linecap="square" stroke-linejoin="round" stroke-miterlimit="10" width="42.89" height="35.6"/>
		<g>
			
				<path fill-rule="evenodd" clip-rule="evenodd" fill="#FFFFFF" stroke="#282425" stroke-width="7" stroke-linecap="round" stroke-linejoin="round" stroke-miterlimit="10" d="
				M44.73,211.95c0-6.36,3.33-9.72,9.63-9.72h13.05h79c6.31,0,9.63,3.36,9.63,9.72v57.43c0,6.36-3.32,9.72-9.63,9.72H54.36
				c-6.3,0-9.63-3.36-9.63-9.72V211.95z"/>
			
				<polygon fill-rule="evenodd" clip-rule="evenodd" fill="#282425" stroke="#282425" stroke-width="7" stroke-linecap="round" stroke-linejoin="round" stroke-miterlimit="10" points="
				45.59,279.1 19.98,320.08 176.83,320.08 155.19,279.1 			"/>
		</g>
		
			<path fill-rule="evenodd" clip-rule="evenodd" fill="none" stroke="#282425" stroke-width="5" stroke-linecap="round" stroke-linejoin="round" stroke-miterlimit="10" d="
			M184.19,158.04c0,0,15.31,25.78,40.43,25.78c25.13,0,42.28-20.87,41.67-22.1"/>
		<g>
			<g>
				
					<path fill-rule="evenodd" clip-rule="evenodd" fill="#FFCC99" stroke="#282425" stroke-width="5" stroke-linecap="round" stroke-linejoin="round" stroke-miterlimit="10" d="
					M277.32,273.43c0,0,3.67-21.48,30.63-22.1c25.26-0.57,37.99,1.23,40.44,7.37c6.89,17.25,4.9,17.19,4.9,17.19L277.32,273.43z"/>
				
					<path fill-rule="evenodd" clip-rule="evenodd" fill="#FFCC99" stroke="#282425" stroke-width="5" stroke-linecap="round" stroke-linejoin="round" stroke-miterlimit="10" d="
					M318.13,260.35l10.77,4.93c0,0,38.45,4.99,44.71,8.47c6.19,3.44,7.95,16.3-12.05,15.61c-20.61-0.7-49.53-4.63-49.53-4.63
					L318.13,260.35z"/>
				
					<path fill-rule="evenodd" clip-rule="evenodd" fill="#FFCC99" stroke="#282425" stroke-width="5" stroke-linecap="round" stroke-linejoin="round" stroke-miterlimit="10" d="
					M277.32,275.64c0-8,6.45-14.48,14.41-14.48c7.95,0,14.4,6.48,14.4,14.48s-6.45,14.49-14.4,14.49
					C283.77,290.13,277.32,283.64,277.32,275.64z"/>
				
					<path fill-rule="evenodd" clip-rule="evenodd" fill="#FFCC99" stroke="#282425" stroke-width="5" stroke-linecap="round" stroke-linejoin="round" stroke-miterlimit="10" d="
					M302.53,275.64c0-8,6.45-14.48,14.41-14.48s14.41,6.48,14.41,14.48s-6.45,14.49-14.41,14.49S302.53,283.64,302.53,275.64z"/>
				
					<path fill-rule="evenodd" clip-rule="evenodd" fill="#FFCC99" stroke="#282425" stroke-width="5" stroke-linecap="round" stroke-linejoin="round" stroke-miterlimit="10" d="
					M327.75,275.04c0-7,5.64-12.68,12.6-12.68c6.97,0,12.61,5.68,12.61,12.68s-5.64,12.68-12.61,12.68
					C333.39,287.72,327.75,282.04,327.75,275.04z"/>
			</g>
		</g>
		
			<rect x="223.4" y="334.81" fill-rule="evenodd" clip-rule="evenodd" fill="#FF4D4D" stroke="#282425" stroke-width="5" stroke-linecap="square" stroke-linejoin="round" stroke-miterlimit="10" width="39.21" height="12.28"/>
		
			<rect x="180.51" y="334.81" fill-rule="evenodd" clip-rule="evenodd" fill="#FF4D4D" stroke="#282425" stroke-width="5" stroke-linecap="square" stroke-linejoin="round" stroke-miterlimit="10" width="39.21" height="12.28"/>
		
			<path fill-rule="evenodd" clip-rule="evenodd" fill="none" stroke="#282425" stroke-width="5" stroke-linecap="round" stroke-linejoin="round" stroke-miterlimit="10" d="
			M179.28,122.44c0,0-1.22-18.42,20.84-18.42c22.05,0,21.44,19.65,20.83,18.42"/>
		
			<path fill-rule="evenodd" clip-rule="evenodd" fill="none" stroke="#282425" stroke-width="5" stroke-linecap="round" stroke-linejoin="round" stroke-miterlimit="10" d="
			M230.75,122.44c0,0-1.22-18.42,20.83-18.42c22.06,0,21.45,19.65,20.84,18.42"/>
		
			<line fill-rule="evenodd" clip-rule="evenodd" fill="none" stroke="#282425" stroke-width="5" stroke-linecap="round" stroke-linejoin="round" stroke-miterlimit="10" x1="182.96" y1="110.16" x2="176.83" y2="104.02"/>
		
			<line fill-rule="evenodd" clip-rule="evenodd" fill="none" stroke="#282425" stroke-width="5" stroke-linecap="round" stroke-linejoin="round" stroke-miterlimit="10" x1="189.09" y1="106.48" x2="182.96" y2="100.34"/>
		<g>
			<g>
				
					<path fill-rule="evenodd" clip-rule="evenodd" fill="#FFD24D" stroke="#282425" stroke-width="2" stroke-linecap="round" stroke-linejoin="round" stroke-miterlimit="10" d="
					M295.7,250.11v6.13c0,0,8.42,2.46,23.28,2.46s19.61-1.23,19.61-1.23v-7.36H295.7z"/>
				
					<path fill-rule="evenodd" clip-rule="evenodd" fill="#FFD24D" stroke="#282425" stroke-width="2" stroke-linecap="round" stroke-linejoin="round" stroke-miterlimit="10" d="
					M295.7,250.11c0-1.36,9.6-2.46,21.44-2.46c11.85,0,21.45,1.1,21.45,2.46c0,1.35-9.6,2.45-21.45,2.45
					C305.3,252.56,295.7,251.46,295.7,250.11z"/>
			</g>
		</g>
		<g>
			<g>
				
					<path fill-rule="evenodd" clip-rule="evenodd" fill="#FFD24D" stroke="#282425" stroke-width="2" stroke-linecap="round" stroke-linejoin="round" stroke-miterlimit="10" d="
					M295.7,242.74v6.14c0,0,8.42,2.45,23.28,2.45s19.61-1.22,19.61-1.22v-7.37H295.7z"/>
				
					<path fill-rule="evenodd" clip-rule="evenodd" fill="#FFD24D" stroke="#282425" stroke-width="2" stroke-linecap="round" stroke-linejoin="round" stroke-miterlimit="10" d="
					M295.7,242.74c0-1.35,9.6-2.45,21.44-2.45c11.85,0,21.45,1.1,21.45,2.45c0,1.36-9.6,2.46-21.45,2.46
					C305.3,245.2,295.7,244.1,295.7,242.74z"/>
			</g>
		</g>
		<g>
			<g>
				
					<path fill-rule="evenodd" clip-rule="evenodd" fill="#FFD24D" stroke="#282425" stroke-width="2" stroke-linecap="round" stroke-linejoin="round" stroke-miterlimit="10" d="
					M295.7,234.15v6.14c0,0,8.42,2.45,23.28,2.45s19.61-1.23,19.61-1.23v-7.36H295.7z"/>
				
					<path fill-rule="evenodd" clip-rule="evenodd" fill="#FFD24D" stroke="#282425" stroke-width="2" stroke-linecap="round" stroke-linejoin="round" stroke-miterlimit="10" d="
					M295.7,234.15c0-1.36,9.6-2.46,21.44-2.46c11.85,0,21.45,1.1,21.45,2.46c0,1.35-9.6,2.45-21.45,2.45
					C305.3,236.6,295.7,235.5,295.7,234.15z"/>
			</g>
		</g>
		<g>
			<g>
				
					<path fill-rule="evenodd" clip-rule="evenodd" fill="#FFD24D" stroke="#282425" stroke-width="2" stroke-linecap="round" stroke-linejoin="round" stroke-miterlimit="10" d="
					M295.7,226.78v6.14c0,0,8.42,2.46,23.28,2.46s19.61-1.23,19.61-1.23v-7.37H295.7z"/>
				
					<path fill-rule="evenodd" clip-rule="evenodd" fill="#FFD24D" stroke="#282425" stroke-width="2" stroke-linecap="round" stroke-linejoin="round" stroke-miterlimit="10" d="
					M295.7,226.78c0-1.35,9.6-2.45,21.44-2.45c11.85,0,21.45,1.1,21.45,2.45c0,1.36-9.6,2.46-21.45,2.46
					C305.3,229.24,295.7,228.14,295.7,226.78z"/>
			</g>
		</g>
		<g>
			<g>
				
					<path fill-rule="evenodd" clip-rule="evenodd" fill="#FFD24D" stroke="#282425" stroke-width="2" stroke-linecap="round" stroke-linejoin="round" stroke-miterlimit="10" d="
					M295.7,219.42v6.14c0,0,8.42,2.45,23.28,2.45s19.61-1.23,19.61-1.23v-7.36H295.7z"/>
				
					<path fill-rule="evenodd" clip-rule="evenodd" fill="#FFD24D" stroke="#282425" stroke-width="2" stroke-linecap="round" stroke-linejoin="round" stroke-miterlimit="10" d="
					M295.7,219.42c0-1.36,9.6-2.46,21.44-2.46c11.85,0,21.45,1.1,21.45,2.46c0,1.35-9.6,2.45-21.45,2.45
					C305.3,221.87,295.7,220.77,295.7,219.42z"/>
			</g>
		</g>
		<g>
			<g>
				
					<path fill-rule="evenodd" clip-rule="evenodd" fill="#FFD24D" stroke="#282425" stroke-width="2" stroke-linecap="round" stroke-linejoin="round" stroke-miterlimit="10" d="
					M295.7,213.28v6.14c0,0,8.42,2.45,23.28,2.45s19.61-1.23,19.61-1.23v-7.36H295.7z"/>
				
					<path fill-rule="evenodd" clip-rule="evenodd" fill="#FFD24D" stroke="#282425" stroke-width="2" stroke-linecap="round" stroke-linejoin="round" stroke-miterlimit="10" d="
					M295.7,213.28c0-1.36,9.6-2.46,21.44-2.46c11.85,0,21.45,1.1,21.45,2.46c0,1.36-9.6,2.45-21.45,2.45
					C305.3,215.73,295.7,214.64,295.7,213.28z"/>
			</g>
		</g>
		<g>
			<g>
				
					<path fill-rule="evenodd" clip-rule="evenodd" fill="#FFD24D" stroke="#282425" stroke-width="2" stroke-linecap="round" stroke-linejoin="round" stroke-miterlimit="10" d="
					M300.6,208.37v6.14c0,0,8.43,2.45,23.28,2.45c14.86,0,19.61-1.23,19.61-1.23v-7.36H300.6z"/>
				
					<path fill-rule="evenodd" clip-rule="evenodd" fill="#FFD24D" stroke="#282425" stroke-width="2" stroke-linecap="round" stroke-linejoin="round" stroke-miterlimit="10" d="
					M300.6,208.37c0-1.36,9.6-2.46,21.45-2.46c11.84,0,21.44,1.1,21.44,2.46c0,1.35-9.6,2.45-21.44,2.45
					C310.2,210.82,300.6,209.72,300.6,208.37z"/>
			</g>
		</g>
		<g>
			<g>
				<g>
					
						<polygon fill-rule="evenodd" clip-rule="evenodd" fill="#FF99FF" stroke="#282425" stroke-width="3" stroke-linecap="round" stroke-linejoin="round" stroke-miterlimit="10" points="
						447.04,248.63 517.5,248.63 511.32,337.49 453.22,337.49 					"/>
					
						<path fill-rule="evenodd" clip-rule="evenodd" fill="none" stroke="#282425" stroke-width="3" stroke-linecap="round" stroke-linejoin="round" stroke-miterlimit="10" d="
						M472.57,248.63c0,0-6.13-31.67,8.17-31.67c14.29,0,10.21,30.64,10.21,30.64"/>
				</g>
				
					<polygon fill-rule="evenodd" clip-rule="evenodd" fill="#26C9FF" stroke="#282425" stroke-width="3" stroke-linecap="round" stroke-linejoin="round" stroke-miterlimit="10" points="
					388.83,292.55 459.29,292.55 453.11,350.77 395.01,350.77 				"/>
				
					<path fill-rule="evenodd" clip-rule="evenodd" fill="none" stroke="#282425" stroke-width="3" stroke-linecap="round" stroke-linejoin="round" stroke-miterlimit="10" d="
					M412.32,291.53c0,0,0-27.58,12.25-27.58c12.26,0,9.19,26.55,9.19,26.55"/>
			</g>
		</g>
	</g>
	<polygon fill-rule="evenodd" clip-rule="evenodd" fill="#EEEEEE" points="82.99,206.1 115.92,206.1 48.99,270.92 48.99,240.1 	"/>
	<polygon fill-rule="evenodd" clip-rule="evenodd" fill="#EEEEEE" points="128.67,206.1 152.04,206.1 84.05,275.17 59.26,274.46 	
		"/>
	<g>
		<path fill="#FF0000" d="M65.683,251.706c-1.08,0-2.088-0.185-3.024-0.553s-1.752-0.875-2.448-1.517
			c-0.696-0.642-1.248-1.412-1.656-2.308c-0.408-0.897-0.636-1.874-0.684-2.93h4.644c0.024,0.984,0.33,1.764,0.918,2.34
			c0.587,0.576,1.374,0.864,2.358,0.864c0.959,0,1.74-0.283,2.34-0.847c0.6-0.565,0.9-1.292,0.9-2.182
			c0-0.841-0.24-1.532-0.72-2.073c-0.48-0.541-1.32-1.028-2.52-1.461c-0.864-0.313-1.566-0.577-2.106-0.793
			s-0.984-0.415-1.332-0.595c-0.348-0.18-0.643-0.354-0.882-0.523c-0.24-0.168-0.48-0.385-0.72-0.649
			c-0.625-0.625-1.116-1.364-1.476-2.218c-0.36-0.854-0.54-1.737-0.54-2.65c0-0.938,0.186-1.821,0.558-2.651
			c0.372-0.829,0.875-1.556,1.512-2.182c0.636-0.625,1.38-1.118,2.232-1.479c0.852-0.36,1.758-0.541,2.718-0.541
			c0.984,0,1.896,0.173,2.736,0.518c0.84,0.345,1.578,0.821,2.214,1.428c0.635,0.606,1.146,1.322,1.53,2.146
			c0.384,0.825,0.6,1.729,0.648,2.712h-4.608c-0.072-0.84-0.336-1.5-0.792-1.98c-0.456-0.48-1.068-0.72-1.836-0.72
			c-0.769,0-1.375,0.223-1.818,0.667c-0.445,0.445-0.666,1.041-0.666,1.786c0,0.408,0.054,0.757,0.162,1.045
			c0.108,0.289,0.312,0.553,0.612,0.793c0.3,0.241,0.714,0.481,1.242,0.721c0.528,0.241,1.2,0.505,2.016,0.793
			c1.056,0.361,1.877,0.697,2.466,1.01c0.588,0.313,1.134,0.709,1.638,1.19c1.44,1.37,2.16,3.053,2.16,5.048
			c0,1.082-0.204,2.098-0.612,3.047c-0.408,0.95-0.96,1.773-1.656,2.47c-0.696,0.697-1.518,1.25-2.466,1.659
			C67.776,251.501,66.763,251.706,65.683,251.706z"/>
		<path fill="#FF0000" d="M76.807,251.238v-24.012h4.464v9.828h8.568v-9.828h4.464v24.012h-4.464v-10.08h-8.568v10.08H76.807z"/>
		<path fill="#FF0000" d="M110.178,251.706c-1.728,0-3.36-0.324-4.896-0.972c-1.536-0.648-2.868-1.536-3.996-2.664
			c-1.128-1.128-2.022-2.448-2.682-3.96c-0.66-1.512-0.99-3.132-0.99-4.86s0.33-3.348,0.99-4.86c0.66-1.512,1.554-2.832,2.682-3.96
			c1.128-1.127,2.46-2.021,3.996-2.682c1.536-0.66,3.168-0.99,4.896-0.99s3.354,0.324,4.878,0.972
			c1.524,0.648,2.85,1.542,3.978,2.682c1.128,1.14,2.021,2.466,2.682,3.978c0.66,1.512,0.99,3.132,0.99,4.86s-0.33,3.348-0.99,4.86
			c-0.661,1.512-1.554,2.832-2.682,3.96c-1.128,1.128-2.454,2.016-3.978,2.664C113.532,251.382,111.906,251.706,110.178,251.706z
			 M110.178,230.862c-1.128,0-2.178,0.224-3.15,0.669c-0.972,0.446-1.831,1.048-2.574,1.808c-0.744,0.76-1.326,1.646-1.746,2.658
			c-0.42,1.012-0.63,2.097-0.63,3.253s0.21,2.242,0.63,3.254c0.42,1.013,1.002,1.898,1.746,2.658c0.744,0.76,1.602,1.356,2.574,1.79
			c0.972,0.434,2.021,0.651,3.15,0.651c1.104,0,2.147-0.217,3.132-0.651c0.984-0.434,1.848-1.03,2.592-1.79
			c0.744-0.759,1.326-1.645,1.746-2.658c0.419-1.012,0.63-2.097,0.63-3.254s-0.21-2.241-0.63-3.253
			c-0.42-1.013-1.002-1.898-1.746-2.658c-0.744-0.759-1.608-1.362-2.592-1.808C112.326,231.085,111.282,230.862,110.178,230.862z"/>
		<path fill="#FF0000" d="M126.018,251.238v-24.012h6.048c1.008,0,1.866,0.03,2.574,0.09c0.708,0.06,1.32,0.162,1.836,0.306
			s0.978,0.342,1.386,0.594c0.408,0.252,0.828,0.57,1.26,0.954c1.488,1.368,2.232,3.145,2.232,5.328
			c0,0.792-0.102,1.554-0.306,2.286c-0.204,0.732-0.499,1.411-0.882,2.034c-0.384,0.625-0.834,1.17-1.35,1.638
			c-0.517,0.468-1.086,0.822-1.71,1.062c-0.336,0.12-0.636,0.222-0.9,0.306c-0.264,0.084-0.57,0.144-0.918,0.18
			c-0.348,0.036-0.78,0.06-1.296,0.072c-0.516,0.013-1.182,0.018-1.998,0.018h-1.512v9.144H126.018z M130.482,237.918h1.404
			c1.751,0,3.03-0.27,3.834-0.81c0.804-0.54,1.206-1.398,1.206-2.574c0-1.152-0.366-1.962-1.098-2.43
			c-0.732-0.468-1.986-0.702-3.762-0.702h-1.584V237.918z"/>
	</g>
</g>
</svg>
