<?xml version="1.0" encoding="utf-8"?>
<!-- Generator: Adobe Illustrator 16.0.0, SVG Export Plug-In . SVG Version: 6.00 Build 0)  -->
<!DOCTYPE svg PUBLIC "-//W3C//DTD SVG 1.1//EN" "http://www.w3.org/Graphics/SVG/1.1/DTD/svg11.dtd">
<svg version="1.1" id="Layer_1" xmlns="http://www.w3.org/2000/svg" xmlns:xlink="http://www.w3.org/1999/xlink" x="0px" y="0px"
	 width="360px" height="252px" viewBox="0 0 360 252" enable-background="new 0 0 360 252" xml:space="preserve">
<path fill-rule="evenodd" clip-rule="evenodd" fill="#BD9460" stroke="#282425" stroke-width="4" stroke-linecap="round" stroke-linejoin="round" stroke-miterlimit="10" d="
	M96,138.5c0-10.49,9.4-19,21-19s21,8.51,21,19s-9.4,19-21,19S96,148.99,96,138.5z"/>
<path fill-rule="evenodd" clip-rule="evenodd" fill="#FFDFBF" stroke="#282425" stroke-width="6" stroke-linecap="round" stroke-linejoin="round" stroke-miterlimit="10" d="
	M119,207.5H88.64c0,0,5.84,2.84-7-12c-25.66-29.67,14-65,14-65l21,21l22.36-21c0,0,39.67,35.33,14,65c-12.84,14.84-7,12-7,12H119z"
	/>
<path fill-rule="evenodd" clip-rule="evenodd" fill="#AAAAAA" d="M38,232c0-6.9,63.57-12.5,142-12.5s142,5.6,142,12.5
	s-63.57,12.5-142,12.5S38,238.9,38,232z"/>
<path fill-rule="evenodd" clip-rule="evenodd" fill="#BD9460" stroke="#282425" stroke-width="7" stroke-linecap="round" stroke-linejoin="round" stroke-miterlimit="10" d="
	M186.96,57.37c-5.388-0.294-7.909,5.975-8.965,9.97c-3.004-33.888-26.913-55.48-58.754-55.48c-31.77,0-55.66,21.49-58.74,55.26
	c-0.98-3.95-3.48-10.77-9.09-10.46c-7.88,0.44-6.13,23.71-0.88,32.5c5.25,8.78,10.5-0.88,10.5-0.88v-1.65
	c4.7,31.04,27.86,49.96,58.21,49.96c30.145,0,53.171-18.67,58.09-49.333v1.733c0,0,5.26,9.67,10.51,0.88
	C193.09,81.09,194.84,57.81,186.96,57.37z"/>
<rect x="86.77" y="207.21" fill-rule="evenodd" clip-rule="evenodd" fill="#333333" stroke="#282425" stroke-width="6" stroke-linecap="square" stroke-linejoin="round" stroke-miterlimit="10" width="30.64" height="25.47"/>
<rect x="116.53" y="207.21" fill-rule="evenodd" clip-rule="evenodd" fill="#333333" stroke="#282425" stroke-width="6" stroke-linecap="square" stroke-linejoin="round" stroke-miterlimit="10" width="30.64" height="25.47"/>
<path fill-rule="evenodd" clip-rule="evenodd" fill="none" stroke="#282425" stroke-width="4" stroke-linecap="round" stroke-linejoin="round" stroke-miterlimit="10" d="
	M89.92,97.78c0,0,10.94,18.44,28.88,18.44c17.95,0,30.2-14.93,29.76-15.81"/>
<g>
	<g>
		
			<path fill-rule="evenodd" clip-rule="evenodd" fill="#BD9460" stroke="#282425" stroke-width="4" stroke-linecap="round" stroke-linejoin="round" stroke-miterlimit="10" d="
			M156.44,180.34c0,0,2.63-15.37,21.88-15.81c18.04-0.41,27.14,0.88,28.89,5.27c4.92,12.34,3.5,12.3,3.5,12.3L156.44,180.34z"/>
		
			<path fill-rule="evenodd" clip-rule="evenodd" fill="#BD9460" stroke="#282425" stroke-width="4" stroke-linecap="round" stroke-linejoin="round" stroke-miterlimit="10" d="
			M185.59,170.98l7.7,3.53c0,0,27.46,3.57,31.93,6.06c4.42,2.46,5.68,11.66-8.6,11.17c-14.73-0.5-35.38-3.31-35.38-3.31
			L185.59,170.98z"/>
		
			<path fill-rule="evenodd" clip-rule="evenodd" fill="#BD9460" stroke="#282425" stroke-width="4" stroke-linecap="round" stroke-linejoin="round" stroke-miterlimit="10" d="
			M156.44,181.92c0-5.72,4.61-10.36,10.29-10.36c5.69,0,10.29,4.64,10.29,10.36c0,5.73-4.6,10.37-10.29,10.37
			C161.05,192.29,156.44,187.65,156.44,181.92z"/>
		
			<path fill-rule="evenodd" clip-rule="evenodd" fill="#BD9460" stroke="#282425" stroke-width="4" stroke-linecap="round" stroke-linejoin="round" stroke-miterlimit="10" d="
			M174.45,181.92c0-5.72,4.61-10.36,10.29-10.36c5.69,0,10.29,4.64,10.29,10.36c0,5.73-4.6,10.37-10.29,10.37
			C179.06,192.29,174.45,187.65,174.45,181.92z"/>
		
			<path fill-rule="evenodd" clip-rule="evenodd" fill="#BD9460" stroke="#282425" stroke-width="4" stroke-linecap="round" stroke-linejoin="round" stroke-miterlimit="10" d="
			M192.46,181.49c0-5.01,4.03-9.07,9.01-9.07c4.97,0,9,4.06,9,9.07c0,5.01-4.03,9.07-9,9.07
			C196.49,190.56,192.46,186.5,192.46,181.49z"/>
	</g>
</g>
<rect x="118.28" y="223.9" fill-rule="evenodd" clip-rule="evenodd" stroke="#282425" stroke-width="4" stroke-linecap="square" stroke-linejoin="round" stroke-miterlimit="10" width="28.01" height="8.78"/>
<rect x="87.65" y="223.9" fill-rule="evenodd" clip-rule="evenodd" stroke="#282425" stroke-width="4" stroke-linecap="square" stroke-linejoin="round" stroke-miterlimit="10" width="28.01" height="8.78"/>
<path fill-rule="evenodd" clip-rule="evenodd" fill="none" stroke="#282425" stroke-width="4" stroke-linecap="round" stroke-linejoin="round" stroke-miterlimit="10" d="
	M86.42,72.31c0,0-0.88-13.18,14.88-13.18c15.75,0,15.32,14.05,14.88,13.18"/>
<path fill-rule="evenodd" clip-rule="evenodd" fill="none" stroke="#282425" stroke-width="4" stroke-linecap="round" stroke-linejoin="round" stroke-miterlimit="10" d="
	M123.18,72.31c0,0-0.88-13.18,14.88-13.18c15.76,0,15.32,14.05,14.88,13.18"/>
<g>
	<g>
		
			<path fill-rule="evenodd" clip-rule="evenodd" fill="#FFD24D" stroke="#282425" stroke-linecap="round" stroke-linejoin="round" stroke-miterlimit="10" d="
			M169.57,163.65v4.39c0,0,6.02,1.76,16.63,1.76c10.61,0,14.01-0.88,14.01-0.88v-5.27H169.57z"/>
		
			<path fill-rule="evenodd" clip-rule="evenodd" fill="#FFD24D" stroke="#282425" stroke-linecap="round" stroke-linejoin="round" stroke-miterlimit="10" d="
			M169.57,163.65c0-0.97,6.86-1.75,15.32-1.75s15.32,0.78,15.32,1.75c0,0.97-6.86,1.76-15.32,1.76S169.57,164.62,169.57,163.65z"/>
	</g>
</g>
<g>
	<g>
		
			<path fill-rule="evenodd" clip-rule="evenodd" fill="#FFD24D" stroke="#282425" stroke-linecap="round" stroke-linejoin="round" stroke-miterlimit="10" d="
			M169.57,158.38v4.39c0,0,6.02,1.76,16.63,1.76c10.61,0,14.01-0.88,14.01-0.88v-5.27H169.57z"/>
		
			<path fill-rule="evenodd" clip-rule="evenodd" fill="#FFD24D" stroke="#282425" stroke-linecap="round" stroke-linejoin="round" stroke-miterlimit="10" d="
			M169.57,158.38c0-0.97,6.86-1.75,15.32-1.75s15.32,0.78,15.32,1.75c0,0.97-6.86,1.76-15.32,1.76S169.57,159.35,169.57,158.38z"/>
	</g>
</g>
<g>
	<g>
		
			<path fill-rule="evenodd" clip-rule="evenodd" fill="#FFD24D" stroke="#282425" stroke-linecap="round" stroke-linejoin="round" stroke-miterlimit="10" d="
			M169.57,152.52v4.39c0,0,6.02,1.76,16.63,1.76c10.61,0,14.01-0.88,14.01-0.88v-5.27H169.57z"/>
		
			<path fill-rule="evenodd" clip-rule="evenodd" fill="#FFD24D" stroke="#282425" stroke-linecap="round" stroke-linejoin="round" stroke-miterlimit="10" d="
			M169.57,153.23c0-0.97,6.86-1.75,15.32-1.75s15.32,0.78,15.32,1.75s-6.86,1.76-15.32,1.76S169.57,154.2,169.57,153.23z"/>
	</g>
</g>
<g>
	<g>
		
			<path fill-rule="evenodd" clip-rule="evenodd" fill="#FFD24D" stroke="#282425" stroke-linecap="round" stroke-linejoin="round" stroke-miterlimit="10" d="
			M169.57,147.25v4.39c0,0,6.02,1.76,16.63,1.76c10.61,0,14.01-0.88,14.01-0.88v-5.27H169.57z"/>
		
			<path fill-rule="evenodd" clip-rule="evenodd" fill="#FFD24D" stroke="#282425" stroke-linecap="round" stroke-linejoin="round" stroke-miterlimit="10" d="
			M169.57,147.96c0-0.97,6.86-1.75,15.32-1.75s15.32,0.78,15.32,1.75c0,0.97-6.86,1.76-15.32,1.76S169.57,148.93,169.57,147.96z"/>
	</g>
</g>
<g>
	<g>
		
			<path fill-rule="evenodd" clip-rule="evenodd" fill="#FFD24D" stroke="#282425" stroke-linecap="round" stroke-linejoin="round" stroke-miterlimit="10" d="
			M169.57,142.69v4.4c0,0,6.02,1.75,16.63,1.75c10.61,0,14.01-0.88,14.01-0.88v-5.27H169.57z"/>
		
			<path fill-rule="evenodd" clip-rule="evenodd" fill="#FFD24D" stroke="#282425" stroke-linecap="round" stroke-linejoin="round" stroke-miterlimit="10" d="
			M169.57,142.69c0-0.97,6.86-1.75,15.32-1.75s15.32,0.78,15.32,1.75c0,0.97-6.86,1.76-15.32,1.76S169.57,143.66,169.57,142.69z"/>
	</g>
</g>
<g>
	<g>
		
			<path fill-rule="evenodd" clip-rule="evenodd" fill="#FFD24D" stroke="#282425" stroke-linecap="round" stroke-linejoin="round" stroke-miterlimit="10" d="
			M169.57,138.3v4.39c0,0,6.02,1.76,16.63,1.76c10.61,0,14.01-0.88,14.01-0.88v-5.27H169.57z"/>
		
			<ellipse fill-rule="evenodd" clip-rule="evenodd" fill="#FFD24D" stroke="#282425" stroke-linecap="round" stroke-linejoin="round" stroke-miterlimit="10" cx="184.89" cy="137.59" rx="15.32" ry="1.76"/>
	</g>
</g>
<g>
	<g>
		
			<path fill-rule="evenodd" clip-rule="evenodd" fill="#FFD24D" stroke="#282425" stroke-linecap="round" stroke-linejoin="round" stroke-miterlimit="10" d="
			M173.07,132.79v4.39c0,0,6.02,1.76,16.63,1.76c10.62,0,14.01-0.88,14.01-0.88v-5.27H173.07z"/>
		
			<ellipse fill-rule="evenodd" clip-rule="evenodd" fill="#FFD24D" stroke="#282425" stroke-linecap="round" stroke-linejoin="round" stroke-miterlimit="10" cx="188.39" cy="132.79" rx="15.32" ry="1.76"/>
	</g>
</g>
<g>
	<g>
		<g>
			<g>
				
					<path fill-rule="evenodd" clip-rule="evenodd" fill="#FFD24D" stroke="#282425" stroke-linecap="round" stroke-linejoin="round" stroke-miterlimit="10" d="
					M282.57,212.65v4.39c0,0,6.02,1.76,16.63,1.76c10.61,0,14.01-0.88,14.01-0.88v-5.27H282.57z"/>
				
					<path fill-rule="evenodd" clip-rule="evenodd" fill="#FFD24D" stroke="#282425" stroke-linecap="round" stroke-linejoin="round" stroke-miterlimit="10" d="
					M282.57,212.65c0-0.97,6.86-1.75,15.32-1.75s15.32,0.78,15.32,1.75c0,0.97-6.86,1.76-15.32,1.76S282.57,213.62,282.57,212.65z"
					/>
			</g>
		</g>
		<g>
			<g>
				
					<path fill-rule="evenodd" clip-rule="evenodd" fill="#FFD24D" stroke="#282425" stroke-linecap="round" stroke-linejoin="round" stroke-miterlimit="10" d="
					M283.57,207.38v4.39c0,0,6.02,1.76,16.63,1.76c10.61,0,14.01-0.88,14.01-0.88v-5.27H283.57z"/>
				
					<path fill-rule="evenodd" clip-rule="evenodd" fill="#FFD24D" stroke="#282425" stroke-linecap="round" stroke-linejoin="round" stroke-miterlimit="10" d="
					M283.57,207.38c0-0.97,6.86-1.75,15.32-1.75s15.32,0.78,15.32,1.75c0,0.97-6.86,1.76-15.32,1.76S283.57,208.35,283.57,207.38z"
					/>
			</g>
		</g>
		<g>
			<g>
				
					<path fill-rule="evenodd" clip-rule="evenodd" fill="#FFD24D" stroke="#282425" stroke-linecap="round" stroke-linejoin="round" stroke-miterlimit="10" d="
					M282.57,201.52v4.39c0,0,6.02,1.76,16.63,1.76c10.61,0,14.01-0.88,14.01-0.88v-5.27H282.57z"/>
				
					<path fill-rule="evenodd" clip-rule="evenodd" fill="#FFD24D" stroke="#282425" stroke-linecap="round" stroke-linejoin="round" stroke-miterlimit="10" d="
					M282.57,202.23c0-0.97,6.86-1.75,15.32-1.75s15.32,0.78,15.32,1.75s-6.86,1.76-15.32,1.76S282.57,203.2,282.57,202.23z"/>
			</g>
		</g>
		<g>
			<g>
				
					<path fill-rule="evenodd" clip-rule="evenodd" fill="#FFD24D" stroke="#282425" stroke-linecap="round" stroke-linejoin="round" stroke-miterlimit="10" d="
					M282.57,196.25v4.39c0,0,6.02,1.76,16.63,1.76c10.61,0,14.01-0.88,14.01-0.88v-5.27H282.57z"/>
				
					<path fill-rule="evenodd" clip-rule="evenodd" fill="#FFD24D" stroke="#282425" stroke-linecap="round" stroke-linejoin="round" stroke-miterlimit="10" d="
					M282.57,196.96c0-0.97,6.86-1.75,15.32-1.75s15.32,0.78,15.32,1.75c0,0.97-6.86,1.76-15.32,1.76S282.57,197.93,282.57,196.96z"
					/>
			</g>
		</g>
		<g>
			<g>
				
					<path fill-rule="evenodd" clip-rule="evenodd" fill="#FFD24D" stroke="#282425" stroke-linecap="round" stroke-linejoin="round" stroke-miterlimit="10" d="
					M281.57,191.69v4.4c0,0,6.02,1.75,16.63,1.75c10.61,0,14.01-0.88,14.01-0.88v-5.27H281.57z"/>
				
					<path fill-rule="evenodd" clip-rule="evenodd" fill="#FFD24D" stroke="#282425" stroke-linecap="round" stroke-linejoin="round" stroke-miterlimit="10" d="
					M281.57,191.69c0-0.97,6.86-1.75,15.32-1.75s15.32,0.78,15.32,1.75c0,0.97-6.86,1.76-15.32,1.76S281.57,192.66,281.57,191.69z"
					/>
			</g>
		</g>
		<g>
			<g>
				
					<path fill-rule="evenodd" clip-rule="evenodd" fill="#FFD24D" stroke="#282425" stroke-linecap="round" stroke-linejoin="round" stroke-miterlimit="10" d="
					M282.57,187.3v4.39c0,0,6.02,1.76,16.63,1.76c10.61,0,14.01-0.88,14.01-0.88v-5.27H282.57z"/>
				
					<ellipse fill-rule="evenodd" clip-rule="evenodd" fill="#FFD24D" stroke="#282425" stroke-linecap="round" stroke-linejoin="round" stroke-miterlimit="10" cx="297.89" cy="186.59" rx="15.32" ry="1.76"/>
			</g>
		</g>
		<g>
			<g>
				
					<path fill-rule="evenodd" clip-rule="evenodd" fill="#FFD24D" stroke="#282425" stroke-linecap="round" stroke-linejoin="round" stroke-miterlimit="10" d="
					M286.07,181.79v4.39c0,0,6.02,1.76,16.63,1.76c10.62,0,14.01-0.88,14.01-0.88v-5.27H286.07z"/>
				
					<ellipse fill-rule="evenodd" clip-rule="evenodd" fill="#FFD24D" stroke="#282425" stroke-linecap="round" stroke-linejoin="round" stroke-miterlimit="10" cx="301.39" cy="181.79" rx="15.32" ry="1.76"/>
			</g>
		</g>
		<g>
			<g>
				
					<path fill-rule="evenodd" clip-rule="evenodd" fill="#FFD24D" stroke="#282425" stroke-linecap="round" stroke-linejoin="round" stroke-miterlimit="10" d="
					M283.57,175.65v4.39c0,0,6.02,1.76,16.63,1.76c10.61,0,14.01-0.88,14.01-0.88v-5.27H283.57z"/>
				
					<path fill-rule="evenodd" clip-rule="evenodd" fill="#FFD24D" stroke="#282425" stroke-linecap="round" stroke-linejoin="round" stroke-miterlimit="10" d="
					M283.57,175.65c0-0.97,6.86-1.75,15.32-1.75s15.32,0.78,15.32,1.75c0,0.97-6.86,1.76-15.32,1.76S283.57,176.62,283.57,175.65z"
					/>
			</g>
		</g>
		<g>
			<g>
				
					<path fill-rule="evenodd" clip-rule="evenodd" fill="#FFD24D" stroke="#282425" stroke-linecap="round" stroke-linejoin="round" stroke-miterlimit="10" d="
					M283.57,170.38v4.39c0,0,6.02,1.76,16.63,1.76c10.61,0,14.01-0.88,14.01-0.88v-5.27H283.57z"/>
				
					<path fill-rule="evenodd" clip-rule="evenodd" fill="#FFD24D" stroke="#282425" stroke-linecap="round" stroke-linejoin="round" stroke-miterlimit="10" d="
					M283.57,170.38c0-0.97,6.86-1.75,15.32-1.75s15.32,0.78,15.32,1.75c0,0.97-6.86,1.76-15.32,1.76S283.57,171.35,283.57,170.38z"
					/>
			</g>
		</g>
		<g>
			<g>
				
					<path fill-rule="evenodd" clip-rule="evenodd" fill="#FFD24D" stroke="#282425" stroke-linecap="round" stroke-linejoin="round" stroke-miterlimit="10" d="
					M281.57,164.52v4.39c0,0,6.02,1.76,16.63,1.76c10.61,0,14.01-0.88,14.01-0.88v-5.27H281.57z"/>
				
					<path fill-rule="evenodd" clip-rule="evenodd" fill="#FFD24D" stroke="#282425" stroke-linecap="round" stroke-linejoin="round" stroke-miterlimit="10" d="
					M281.57,165.23c0-0.97,6.86-1.75,15.32-1.75s15.32,0.78,15.32,1.75s-6.86,1.76-15.32,1.76S281.57,166.2,281.57,165.23z"/>
			</g>
		</g>
		<g>
			<g>
				
					<path fill-rule="evenodd" clip-rule="evenodd" fill="#FFD24D" stroke="#282425" stroke-linecap="round" stroke-linejoin="round" stroke-miterlimit="10" d="
					M283.57,159.25v4.39c0,0,6.02,1.76,16.63,1.76c10.61,0,14.01-0.88,14.01-0.88v-5.27H283.57z"/>
				
					<path fill-rule="evenodd" clip-rule="evenodd" fill="#FFD24D" stroke="#282425" stroke-linecap="round" stroke-linejoin="round" stroke-miterlimit="10" d="
					M283.57,159.96c0-0.97,6.86-1.75,15.32-1.75s15.32,0.78,15.32,1.75c0,0.97-6.86,1.76-15.32,1.76S283.57,160.93,283.57,159.96z"
					/>
			</g>
		</g>
		<g>
			<g>
				
					<path fill-rule="evenodd" clip-rule="evenodd" fill="#FFD24D" stroke="#282425" stroke-linecap="round" stroke-linejoin="round" stroke-miterlimit="10" d="
					M283.57,154.69v4.4c0,0,6.02,1.75,16.63,1.75c10.61,0,14.01-0.88,14.01-0.88v-5.27H283.57z"/>
				
					<path fill-rule="evenodd" clip-rule="evenodd" fill="#FFD24D" stroke="#282425" stroke-linecap="round" stroke-linejoin="round" stroke-miterlimit="10" d="
					M283.57,154.69c0-0.97,6.86-1.75,15.32-1.75s15.32,0.78,15.32,1.75c0,0.97-6.86,1.76-15.32,1.76S283.57,155.66,283.57,154.69z"
					/>
			</g>
		</g>
		<g>
			<g>
				
					<path fill-rule="evenodd" clip-rule="evenodd" fill="#FFD24D" stroke="#282425" stroke-linecap="round" stroke-linejoin="round" stroke-miterlimit="10" d="
					M284.57,150.3v4.39c0,0,6.02,1.76,16.63,1.76c10.61,0,14.01-0.88,14.01-0.88v-5.27H284.57z"/>
				
					<ellipse fill-rule="evenodd" clip-rule="evenodd" fill="#FFD24D" stroke="#282425" stroke-linecap="round" stroke-linejoin="round" stroke-miterlimit="10" cx="299.89" cy="149.59" rx="15.32" ry="1.76"/>
			</g>
		</g>
		<g>
			<g>
				
					<path fill-rule="evenodd" clip-rule="evenodd" fill="#FFD24D" stroke="#282425" stroke-linecap="round" stroke-linejoin="round" stroke-miterlimit="10" d="
					M279.07,144.79v4.39c0,0,6.02,1.76,16.63,1.76c10.62,0,14.01-0.88,14.01-0.88v-5.27H279.07z"/>
				
					<ellipse fill-rule="evenodd" clip-rule="evenodd" fill="#FFD24D" stroke="#282425" stroke-linecap="round" stroke-linejoin="round" stroke-miterlimit="10" cx="294.39" cy="144.79" rx="15.32" ry="1.76"/>
			</g>
		</g>
	</g>
	<g>
		<g>
			<g>
				
					<path fill-rule="evenodd" clip-rule="evenodd" fill="#FFD24D" stroke="#282425" stroke-linecap="round" stroke-linejoin="round" stroke-miterlimit="10" d="
					M269.57,230.65v4.39c0,0,6.02,1.76,16.63,1.76c10.61,0,14.01-0.88,14.01-0.88v-5.27H269.57z"/>
				
					<path fill-rule="evenodd" clip-rule="evenodd" fill="#FFD24D" stroke="#282425" stroke-linecap="round" stroke-linejoin="round" stroke-miterlimit="10" d="
					M269.57,230.65c0-0.97,6.86-1.75,15.32-1.75s15.32,0.78,15.32,1.75c0,0.97-6.86,1.76-15.32,1.76S269.57,231.62,269.57,230.65z"
					/>
			</g>
		</g>
		<g>
			<g>
				
					<path fill-rule="evenodd" clip-rule="evenodd" fill="#FFD24D" stroke="#282425" stroke-linecap="round" stroke-linejoin="round" stroke-miterlimit="10" d="
					M269.57,225.38v4.39c0,0,6.02,1.76,16.63,1.76c10.61,0,14.01-0.88,14.01-0.88v-5.27H269.57z"/>
				
					<path fill-rule="evenodd" clip-rule="evenodd" fill="#FFD24D" stroke="#282425" stroke-linecap="round" stroke-linejoin="round" stroke-miterlimit="10" d="
					M269.57,225.38c0-0.97,6.86-1.75,15.32-1.75s15.32,0.78,15.32,1.75c0,0.97-6.86,1.76-15.32,1.76S269.57,226.35,269.57,225.38z"
					/>
			</g>
		</g>
		<g>
			<g>
				
					<path fill-rule="evenodd" clip-rule="evenodd" fill="#FFD24D" stroke="#282425" stroke-linecap="round" stroke-linejoin="round" stroke-miterlimit="10" d="
					M269.57,219.52v4.39c0,0,6.02,1.76,16.63,1.76c10.61,0,14.01-0.88,14.01-0.88v-5.27H269.57z"/>
				
					<path fill-rule="evenodd" clip-rule="evenodd" fill="#FFD24D" stroke="#282425" stroke-linecap="round" stroke-linejoin="round" stroke-miterlimit="10" d="
					M269.57,220.23c0-0.97,6.86-1.75,15.32-1.75s15.32,0.78,15.32,1.75s-6.86,1.76-15.32,1.76S269.57,221.2,269.57,220.23z"/>
			</g>
		</g>
		<g>
			<g>
				
					<path fill-rule="evenodd" clip-rule="evenodd" fill="#FFD24D" stroke="#282425" stroke-linecap="round" stroke-linejoin="round" stroke-miterlimit="10" d="
					M269.57,214.25v4.39c0,0,6.02,1.76,16.63,1.76c10.61,0,14.01-0.88,14.01-0.88v-5.27H269.57z"/>
				
					<path fill-rule="evenodd" clip-rule="evenodd" fill="#FFD24D" stroke="#282425" stroke-linecap="round" stroke-linejoin="round" stroke-miterlimit="10" d="
					M269.57,214.96c0-0.97,6.86-1.75,15.32-1.75s15.32,0.78,15.32,1.75c0,0.97-6.86,1.76-15.32,1.76S269.57,215.93,269.57,214.96z"
					/>
			</g>
		</g>
		<g>
			<g>
				
					<path fill-rule="evenodd" clip-rule="evenodd" fill="#FFD24D" stroke="#282425" stroke-linecap="round" stroke-linejoin="round" stroke-miterlimit="10" d="
					M269.57,209.69v4.4c0,0,6.02,1.75,16.63,1.75c10.61,0,14.01-0.88,14.01-0.88v-5.27H269.57z"/>
				
					<path fill-rule="evenodd" clip-rule="evenodd" fill="#FFD24D" stroke="#282425" stroke-linecap="round" stroke-linejoin="round" stroke-miterlimit="10" d="
					M269.57,209.69c0-0.97,6.86-1.75,15.32-1.75s15.32,0.78,15.32,1.75c0,0.97-6.86,1.76-15.32,1.76S269.57,210.66,269.57,209.69z"
					/>
			</g>
		</g>
		<g>
			<g>
				
					<path fill-rule="evenodd" clip-rule="evenodd" fill="#FFD24D" stroke="#282425" stroke-linecap="round" stroke-linejoin="round" stroke-miterlimit="10" d="
					M269.57,205.3v4.39c0,0,6.02,1.76,16.63,1.76c10.61,0,14.01-0.88,14.01-0.88v-5.27H269.57z"/>
				
					<ellipse fill-rule="evenodd" clip-rule="evenodd" fill="#FFD24D" stroke="#282425" stroke-linecap="round" stroke-linejoin="round" stroke-miterlimit="10" cx="284.89" cy="204.59" rx="15.32" ry="1.76"/>
			</g>
		</g>
		<g>
			<g>
				
					<path fill-rule="evenodd" clip-rule="evenodd" fill="#FFD24D" stroke="#282425" stroke-linecap="round" stroke-linejoin="round" stroke-miterlimit="10" d="
					M273.07,199.79v4.39c0,0,6.02,1.76,16.63,1.76c10.62,0,14.01-0.88,14.01-0.88v-5.27H273.07z"/>
				
					<ellipse fill-rule="evenodd" clip-rule="evenodd" fill="#FFD24D" stroke="#282425" stroke-linecap="round" stroke-linejoin="round" stroke-miterlimit="10" cx="288.39" cy="199.79" rx="15.32" ry="1.76"/>
			</g>
		</g>
	</g>
	<g>
		<g>
			<g>
				
					<path fill-rule="evenodd" clip-rule="evenodd" fill="#FFD24D" stroke="#282425" stroke-linecap="round" stroke-linejoin="round" stroke-miterlimit="10" d="
					M281.57,138.65v4.39c0,0,6.02,1.76,16.63,1.76c10.61,0,14.01-0.88,14.01-0.88v-5.27H281.57z"/>
				
					<path fill-rule="evenodd" clip-rule="evenodd" fill="#FFD24D" stroke="#282425" stroke-linecap="round" stroke-linejoin="round" stroke-miterlimit="10" d="
					M281.57,138.65c0-0.97,6.86-1.75,15.32-1.75s15.32,0.78,15.32,1.75c0,0.97-6.86,1.76-15.32,1.76S281.57,139.62,281.57,138.65z"
					/>
			</g>
		</g>
		<g>
			<g>
				
					<path fill-rule="evenodd" clip-rule="evenodd" fill="#FFD24D" stroke="#282425" stroke-linecap="round" stroke-linejoin="round" stroke-miterlimit="10" d="
					M281.57,133.38v4.39c0,0,6.02,1.76,16.63,1.76c10.61,0,14.01-0.88,14.01-0.88v-5.27H281.57z"/>
				
					<path fill-rule="evenodd" clip-rule="evenodd" fill="#FFD24D" stroke="#282425" stroke-linecap="round" stroke-linejoin="round" stroke-miterlimit="10" d="
					M281.57,133.38c0-0.97,6.86-1.75,15.32-1.75s15.32,0.78,15.32,1.75c0,0.97-6.86,1.76-15.32,1.76S281.57,134.35,281.57,133.38z"
					/>
			</g>
		</g>
		<g>
			<g>
				
					<path fill-rule="evenodd" clip-rule="evenodd" fill="#FFD24D" stroke="#282425" stroke-linecap="round" stroke-linejoin="round" stroke-miterlimit="10" d="
					M281.57,127.52v4.39c0,0,6.02,1.76,16.63,1.76c10.61,0,14.01-0.88,14.01-0.88v-5.27H281.57z"/>
				
					<path fill-rule="evenodd" clip-rule="evenodd" fill="#FFD24D" stroke="#282425" stroke-linecap="round" stroke-linejoin="round" stroke-miterlimit="10" d="
					M281.57,128.23c0-0.97,6.86-1.75,15.32-1.75s15.32,0.78,15.32,1.75s-6.86,1.76-15.32,1.76S281.57,129.2,281.57,128.23z"/>
			</g>
		</g>
		<g>
			<g>
				
					<path fill-rule="evenodd" clip-rule="evenodd" fill="#FFD24D" stroke="#282425" stroke-linecap="round" stroke-linejoin="round" stroke-miterlimit="10" d="
					M281.57,122.25v4.39c0,0,6.02,1.76,16.63,1.76c10.61,0,14.01-0.88,14.01-0.88v-5.27H281.57z"/>
				
					<path fill-rule="evenodd" clip-rule="evenodd" fill="#FFD24D" stroke="#282425" stroke-linecap="round" stroke-linejoin="round" stroke-miterlimit="10" d="
					M281.57,122.96c0-0.97,6.86-1.75,15.32-1.75s15.32,0.78,15.32,1.75c0,0.97-6.86,1.76-15.32,1.76S281.57,123.93,281.57,122.96z"
					/>
			</g>
		</g>
		<g>
			<g>
				
					<path fill-rule="evenodd" clip-rule="evenodd" fill="#FFD24D" stroke="#282425" stroke-linecap="round" stroke-linejoin="round" stroke-miterlimit="10" d="
					M281.57,117.69v4.4c0,0,6.02,1.75,16.63,1.75c10.61,0,14.01-0.88,14.01-0.88v-5.27H281.57z"/>
				
					<path fill-rule="evenodd" clip-rule="evenodd" fill="#FFD24D" stroke="#282425" stroke-linecap="round" stroke-linejoin="round" stroke-miterlimit="10" d="
					M281.57,117.69c0-0.97,6.86-1.75,15.32-1.75s15.32,0.78,15.32,1.75c0,0.97-6.86,1.76-15.32,1.76S281.57,118.66,281.57,117.69z"
					/>
			</g>
		</g>
		<g>
			<g>
				
					<path fill-rule="evenodd" clip-rule="evenodd" fill="#FFD24D" stroke="#282425" stroke-linecap="round" stroke-linejoin="round" stroke-miterlimit="10" d="
					M281.57,113.3v4.39c0,0,6.02,1.76,16.63,1.76c10.61,0,14.01-0.88,14.01-0.88v-5.27H281.57z"/>
				
					<ellipse fill-rule="evenodd" clip-rule="evenodd" fill="#FFD24D" stroke="#282425" stroke-linecap="round" stroke-linejoin="round" stroke-miterlimit="10" cx="296.89" cy="112.59" rx="15.32" ry="1.76"/>
			</g>
		</g>
		<g>
			<g>
				
					<path fill-rule="evenodd" clip-rule="evenodd" fill="#FFD24D" stroke="#282425" stroke-linecap="round" stroke-linejoin="round" stroke-miterlimit="10" d="
					M285.07,107.79v4.39c0,0,6.02,1.76,16.63,1.76c10.62,0,14.01-0.88,14.01-0.88v-5.27H285.07z"/>
				
					<ellipse fill-rule="evenodd" clip-rule="evenodd" fill="#FFD24D" stroke="#282425" stroke-linecap="round" stroke-linejoin="round" stroke-miterlimit="10" cx="300.39" cy="107.79" rx="15.32" ry="1.76"/>
			</g>
		</g>
	</g>
	<g>
		<g>
			
				<path fill-rule="evenodd" clip-rule="evenodd" fill="#FFD24D" stroke="#282425" stroke-linecap="round" stroke-linejoin="round" stroke-miterlimit="10" d="
				M239.57,222.65v4.39c0,0,6.02,1.76,16.63,1.76c10.61,0,14.01-0.88,14.01-0.88v-5.27H239.57z"/>
			
				<path fill-rule="evenodd" clip-rule="evenodd" fill="#FFD24D" stroke="#282425" stroke-linecap="round" stroke-linejoin="round" stroke-miterlimit="10" d="
				M239.57,222.65c0-0.97,6.86-1.75,15.32-1.75s15.32,0.78,15.32,1.75c0,0.97-6.86,1.76-15.32,1.76S239.57,223.62,239.57,222.65z"/>
		</g>
	</g>
	<g>
		<g>
			
				<path fill-rule="evenodd" clip-rule="evenodd" fill="#FFD24D" stroke="#282425" stroke-linecap="round" stroke-linejoin="round" stroke-miterlimit="10" d="
				M240.57,217.38v4.39c0,0,6.02,1.76,16.63,1.76c10.61,0,14.01-0.88,14.01-0.88v-5.27H240.57z"/>
			
				<path fill-rule="evenodd" clip-rule="evenodd" fill="#FFD24D" stroke="#282425" stroke-linecap="round" stroke-linejoin="round" stroke-miterlimit="10" d="
				M240.57,217.38c0-0.97,6.86-1.75,15.32-1.75s15.32,0.78,15.32,1.75c0,0.97-6.86,1.76-15.32,1.76S240.57,218.35,240.57,217.38z"/>
		</g>
	</g>
	<g>
		<g>
			
				<path fill-rule="evenodd" clip-rule="evenodd" fill="#FFD24D" stroke="#282425" stroke-linecap="round" stroke-linejoin="round" stroke-miterlimit="10" d="
				M239.57,211.52v4.39c0,0,6.02,1.76,16.63,1.76c10.61,0,14.01-0.88,14.01-0.88v-5.27H239.57z"/>
			
				<path fill-rule="evenodd" clip-rule="evenodd" fill="#FFD24D" stroke="#282425" stroke-linecap="round" stroke-linejoin="round" stroke-miterlimit="10" d="
				M239.57,212.23c0-0.97,6.86-1.75,15.32-1.75s15.32,0.78,15.32,1.75s-6.86,1.76-15.32,1.76S239.57,213.2,239.57,212.23z"/>
		</g>
	</g>
	<g>
		<g>
			
				<path fill-rule="evenodd" clip-rule="evenodd" fill="#FFD24D" stroke="#282425" stroke-linecap="round" stroke-linejoin="round" stroke-miterlimit="10" d="
				M239.57,206.25v4.39c0,0,6.02,1.76,16.63,1.76c10.61,0,14.01-0.88,14.01-0.88v-5.27H239.57z"/>
			
				<path fill-rule="evenodd" clip-rule="evenodd" fill="#FFD24D" stroke="#282425" stroke-linecap="round" stroke-linejoin="round" stroke-miterlimit="10" d="
				M239.57,206.96c0-0.97,6.86-1.75,15.32-1.75s15.32,0.78,15.32,1.75c0,0.97-6.86,1.76-15.32,1.76S239.57,207.93,239.57,206.96z"/>
		</g>
	</g>
	<g>
		<g>
			
				<path fill-rule="evenodd" clip-rule="evenodd" fill="#FFD24D" stroke="#282425" stroke-linecap="round" stroke-linejoin="round" stroke-miterlimit="10" d="
				M238.57,201.69v4.4c0,0,6.02,1.75,16.63,1.75c10.61,0,14.01-0.88,14.01-0.88v-5.27H238.57z"/>
			
				<path fill-rule="evenodd" clip-rule="evenodd" fill="#FFD24D" stroke="#282425" stroke-linecap="round" stroke-linejoin="round" stroke-miterlimit="10" d="
				M238.57,201.69c0-0.97,6.86-1.75,15.32-1.75s15.32,0.78,15.32,1.75c0,0.97-6.86,1.76-15.32,1.76S238.57,202.66,238.57,201.69z"/>
		</g>
	</g>
	<g>
		<g>
			
				<path fill-rule="evenodd" clip-rule="evenodd" fill="#FFD24D" stroke="#282425" stroke-linecap="round" stroke-linejoin="round" stroke-miterlimit="10" d="
				M239.57,197.3v4.39c0,0,6.02,1.76,16.63,1.76c10.61,0,14.01-0.88,14.01-0.88v-5.27H239.57z"/>
			
				<ellipse fill-rule="evenodd" clip-rule="evenodd" fill="#FFD24D" stroke="#282425" stroke-linecap="round" stroke-linejoin="round" stroke-miterlimit="10" cx="254.89" cy="196.59" rx="15.32" ry="1.76"/>
		</g>
	</g>
	<g>
		<g>
			
				<path fill-rule="evenodd" clip-rule="evenodd" fill="#FFD24D" stroke="#282425" stroke-linecap="round" stroke-linejoin="round" stroke-miterlimit="10" d="
				M243.07,191.79v4.39c0,0,6.02,1.76,16.63,1.76c10.62,0,14.01-0.88,14.01-0.88v-5.27H243.07z"/>
			
				<ellipse fill-rule="evenodd" clip-rule="evenodd" fill="#FFD24D" stroke="#282425" stroke-linecap="round" stroke-linejoin="round" stroke-miterlimit="10" cx="258.39" cy="191.79" rx="15.32" ry="1.76"/>
		</g>
	</g>
	<g>
		<g>
			
				<path fill-rule="evenodd" clip-rule="evenodd" fill="#FFD24D" stroke="#282425" stroke-linecap="round" stroke-linejoin="round" stroke-miterlimit="10" d="
				M240.57,185.65v4.39c0,0,6.02,1.76,16.63,1.76c10.61,0,14.01-0.88,14.01-0.88v-5.27H240.57z"/>
			
				<path fill-rule="evenodd" clip-rule="evenodd" fill="#FFD24D" stroke="#282425" stroke-linecap="round" stroke-linejoin="round" stroke-miterlimit="10" d="
				M240.57,185.65c0-0.97,6.86-1.75,15.32-1.75s15.32,0.78,15.32,1.75c0,0.97-6.86,1.76-15.32,1.76S240.57,186.62,240.57,185.65z"/>
		</g>
	</g>
	<g>
		<g>
			
				<path fill-rule="evenodd" clip-rule="evenodd" fill="#FFD24D" stroke="#282425" stroke-linecap="round" stroke-linejoin="round" stroke-miterlimit="10" d="
				M240.57,180.38v4.39c0,0,6.02,1.76,16.63,1.76c10.61,0,14.01-0.88,14.01-0.88v-5.27H240.57z"/>
			
				<path fill-rule="evenodd" clip-rule="evenodd" fill="#FFD24D" stroke="#282425" stroke-linecap="round" stroke-linejoin="round" stroke-miterlimit="10" d="
				M240.57,180.38c0-0.97,6.86-1.75,15.32-1.75s15.32,0.78,15.32,1.75c0,0.97-6.86,1.76-15.32,1.76S240.57,181.35,240.57,180.38z"/>
		</g>
	</g>
	<g>
		<g>
			
				<path fill-rule="evenodd" clip-rule="evenodd" fill="#FFD24D" stroke="#282425" stroke-linecap="round" stroke-linejoin="round" stroke-miterlimit="10" d="
				M238.57,174.52v4.39c0,0,6.02,1.76,16.63,1.76c10.61,0,14.01-0.88,14.01-0.88v-5.27H238.57z"/>
			
				<path fill-rule="evenodd" clip-rule="evenodd" fill="#FFD24D" stroke="#282425" stroke-linecap="round" stroke-linejoin="round" stroke-miterlimit="10" d="
				M238.57,175.23c0-0.97,6.86-1.75,15.32-1.75s15.32,0.78,15.32,1.75s-6.86,1.76-15.32,1.76S238.57,176.2,238.57,175.23z"/>
		</g>
	</g>
	<g>
		<g>
			
				<path fill-rule="evenodd" clip-rule="evenodd" fill="#FFD24D" stroke="#282425" stroke-linecap="round" stroke-linejoin="round" stroke-miterlimit="10" d="
				M240.57,169.25v4.39c0,0,6.02,1.76,16.63,1.76c10.61,0,14.01-0.88,14.01-0.88v-5.27H240.57z"/>
			
				<path fill-rule="evenodd" clip-rule="evenodd" fill="#FFD24D" stroke="#282425" stroke-linecap="round" stroke-linejoin="round" stroke-miterlimit="10" d="
				M240.57,169.96c0-0.97,6.86-1.75,15.32-1.75s15.32,0.78,15.32,1.75c0,0.97-6.86,1.76-15.32,1.76S240.57,170.93,240.57,169.96z"/>
		</g>
	</g>
	<g>
		<g>
			
				<path fill-rule="evenodd" clip-rule="evenodd" fill="#FFD24D" stroke="#282425" stroke-linecap="round" stroke-linejoin="round" stroke-miterlimit="10" d="
				M240.57,164.69v4.4c0,0,6.02,1.75,16.63,1.75c10.61,0,14.01-0.88,14.01-0.88v-5.27H240.57z"/>
			
				<path fill-rule="evenodd" clip-rule="evenodd" fill="#FFD24D" stroke="#282425" stroke-linecap="round" stroke-linejoin="round" stroke-miterlimit="10" d="
				M240.57,164.69c0-0.97,6.86-1.75,15.32-1.75s15.32,0.78,15.32,1.75c0,0.97-6.86,1.76-15.32,1.76S240.57,165.66,240.57,164.69z"/>
		</g>
	</g>
	<g>
		<g>
			
				<path fill-rule="evenodd" clip-rule="evenodd" fill="#FFD24D" stroke="#282425" stroke-linecap="round" stroke-linejoin="round" stroke-miterlimit="10" d="
				M241.57,160.3v4.39c0,0,6.02,1.76,16.63,1.76c10.61,0,14.01-0.88,14.01-0.88v-5.27H241.57z"/>
			
				<ellipse fill-rule="evenodd" clip-rule="evenodd" fill="#FFD24D" stroke="#282425" stroke-linecap="round" stroke-linejoin="round" stroke-miterlimit="10" cx="256.89" cy="159.59" rx="15.32" ry="1.76"/>
		</g>
	</g>
	<g>
		<g>
			
				<path fill-rule="evenodd" clip-rule="evenodd" fill="#FFD24D" stroke="#282425" stroke-linecap="round" stroke-linejoin="round" stroke-miterlimit="10" d="
				M236.07,154.79v4.39c0,0,6.02,1.76,16.63,1.76c10.62,0,14.01-0.88,14.01-0.88v-5.27H236.07z"/>
			
				<ellipse fill-rule="evenodd" clip-rule="evenodd" fill="#FFD24D" stroke="#282425" stroke-linecap="round" stroke-linejoin="round" stroke-miterlimit="10" cx="251.39" cy="154.79" rx="15.32" ry="1.76"/>
		</g>
	</g>
</g>
<rect x="129" y="159.5" fill-rule="evenodd" clip-rule="evenodd" fill="#FFDFBF" stroke="#282425" stroke-width="4" stroke-linecap="round" stroke-linejoin="round" stroke-miterlimit="10" width="15" height="14"/>
<circle fill-rule="evenodd" clip-rule="evenodd" fill="#282425" cx="118.5" cy="164" r="2.5"/>
<circle fill-rule="evenodd" clip-rule="evenodd" fill="#282425" cx="118.5" cy="175" r="2.5"/>
<circle fill-rule="evenodd" clip-rule="evenodd" fill="#282425" cx="118.5" cy="185" r="2.5"/>
</svg>
